<?xml version="1.0" encoding="UTF-8" standalone="no"?>
<!-- Created with Inkscape (http://www.inkscape.org/) -->

<svg
   version="1.1"
   id="svg2"
   width="2829.3333"
   height="2829.3333"
   viewBox="0 0 2829.3333 2829.3333"
   sodipodi:docname="vecteezy_worker-female-of-developer-web_.eps"
   xmlns:inkscape="http://www.inkscape.org/namespaces/inkscape"
   xmlns:sodipodi="http://sodipodi.sourceforge.net/DTD/sodipodi-0.dtd"
   xmlns="http://www.w3.org/2000/svg"
   xmlns:svg="http://www.w3.org/2000/svg">
  <defs
     id="defs6" />
  <sodipodi:namedview
     id="namedview4"
     pagecolor="#ffffff"
     bordercolor="#000000"
     borderopacity="0.25"
     inkscape:showpageshadow="2"
     inkscape:pageopacity="0.0"
     inkscape:pagecheckerboard="0"
     inkscape:deskcolor="#d1d1d1" />
  <g
     id="g8"
     inkscape:groupmode="layer"
     inkscape:label="ink_ext_XXXXXX"
     transform="matrix(1.3333333,0,0,-1.3333333,0,2829.3333)">
    <g
       id="g10"
       transform="scale(0.1)">
      <path
         d="m 8522.81,16902.2 h -122.5 v -3111.6 h 122.5 v 3111.6"
         style="fill:#252745;fill-opacity:1;fill-rule:nonzero;stroke:none"
         id="path12" />
      <path
         d="m 11991.2,12597.5 c 28.9,52.1 59.7,106.4 91.8,162.1 h -1107.5 l 528.6,-162.1 h 487.1"
         style="fill:#15151c;fill-opacity:1;fill-rule:nonzero;stroke:none"
         id="path14" />
      <path
         d="m 13124.9,12769 c -42.5,-55.4 -86.7,-112.8 -132.5,-171.5 h 257.2 c -5.7,48.8 -14.8,103.6 -26,162.1 h -98.7 v 9.4"
         style="fill:#15151c;fill-opacity:1;fill-rule:nonzero;stroke:none"
         id="path16" />
      <path
         d="m 14405.9,16189.3 h -6.2 c -1.3,-0.5 -2.6,-0.9 -3.9,-1.4 h 10.2 l -0.1,1.4"
         style="fill:#15151c;fill-opacity:1;fill-rule:nonzero;stroke:none"
         id="path18" />
      <path
         d="m 15370.4,16408.6 c -15.9,-18 -33.3,-35.8 -51.8,-52.7 l 26.9,-117.4 c 8.9,56.7 17.2,113.4 24.9,170.1"
         style="fill:#15151c;fill-opacity:1;fill-rule:nonzero;stroke:none"
         id="path20" />
      <path
         d="M 10016.1,12759.6 H 8992.89 l 33.99,-162.1 H 10253 c -93.6,62.7 -173.9,118 -236.9,162.1"
         style="fill:#15151c;fill-opacity:1;fill-rule:nonzero;stroke:none"
         id="path22" />
      <path
         d="m 8896.84,16472.1 h 4129.26 v -282.8 H 8896.84 Z m 307.22,-284.2 h 3822.04 v -1460.8 c 30.1,34.5 63.1,69.3 98.8,103.3 v 1357.5 h 307.2 22.6 650.2 c -0.7,0.5 -1.5,0.9 -2.1,1.4 h -977.9 v 282.8 h 810.4 c -17.1,49.7 -32.5,102.3 -45.7,157.2 H 8740.08 v -2838.7 h 36.8 l 119.96,-572.5 v 2969.8 h 307.22"
         style="fill:#15151c;fill-opacity:1;fill-rule:nonzero;stroke:none"
         id="path24" />
      <path
         d="m 11282.1,11974.8 c -40.1,21.3 -80.1,42.9 -120,64.8 l -101.5,-475.4 h 133.9 l 87.6,410.6"
         style="fill:#252745;fill-opacity:1;fill-rule:nonzero;stroke:none"
         id="path26" />
      <path
         d="m 11060.6,11564.2 c 0,0 -15,-76.4 -26.8,-144.2 -0.1,-0.6 -0.2,-1.2 -0.3,-1.8 h 15.9 c 0,0 55.3,-0.1 114.5,-12.8 13.7,75.1 30.6,158.8 30.6,158.8 h -133.9"
         style="fill:#252745;fill-opacity:1;fill-rule:nonzero;stroke:none"
         id="path28" />
      <path
         d="m 11952.8,11236.6 c 0,37.4 -25.7,67.7 -57.4,67.7 h -572.7 l 121,-135.3 h 451.7 c 31.7,0 57.4,30.2 57.4,67.6"
         style="fill:#252745;fill-opacity:1;fill-rule:nonzero;stroke:none"
         id="path30" />
      <path
         d="m 11895.4,11304.3 c 31.7,0 57.4,-30.3 57.4,-67.7 0,-37.4 -25.7,-67.6 -57.4,-67.6 h 812.7 134 184 c 21.2,44.6 37.3,89.8 50.2,135.3 h -334 -846.9"
         style="fill:#424881;fill-opacity:1;fill-rule:nonzero;stroke:none"
         id="path32" />
      <path
         d="m 9140.43,13527.6 h -168.55 v 51.6 h 168.55 z m 0,-168.6 h -168.55 v 51.5 h 168.55 z m 0,-168.5 h -168.55 v 51.5 h 168.55 z m 0,-168.7 h -168.55 v 51.6 h 168.55 z m -168.55,1063.1 h 168.55 v -51.5 h -168.55 z m 0,168.7 h 168.55 v -51.5 h -168.55 z m 0,168.6 h 168.55 v -51.5 h -168.55 z m 0,168.6 h 168.55 v -51.5 h -168.55 z m 0,168.6 h 168.55 v -51.5 h -168.55 z m 0,168.6 h 168.55 v -51.6 h -168.55 z m 0,168.6 h 168.55 v -51.5 h -168.55 z m 0,168.6 h 168.55 v -51.5 h -168.55 z m 0,168.6 h 168.55 v -51.6 h -168.55 z m 0,168.6 h 168.55 v -51.5 h -168.55 z m 0,168.6 h 168.55 v -51.5 h -168.55 z m 0,168.6 h 168.55 v -51.5 h -168.55 z m 0,168.7 h 168.55 v -51.6 h -168.55 z m 232.18,-2452.8 -63.63,73.8 v -33 h -168.55 v 51.5 h 152.65 l -100.82,117 h -51.83 v 51.5 h 39.02 c 4.1,61.2 46.13,66.8 46.13,66.8 l 69.38,-66.8 h 14.02 v -13.4 l 63.63,-61.3 v 2346.3 h -307.22 v -2969.8 l 75.04,-358.1 v 44.7 h 168.55 v -51.5 h -167.15 l 19.61,-93.6 h 211.17 v 895.9"
         style="fill:#1b1c28;fill-opacity:1;fill-rule:nonzero;stroke:none"
         id="path34" />
      <path
         d="m 9751.33,12789.3 c -117.54,-0.5 -205.24,117.3 -205.24,117.3 l -194.1,186.7 c -93.79,138 -17.89,155.8 -17.89,155.8 -131.99,158.8 -8.2,180.2 -8.2,180.2 -43.09,52.3 -52.62,104.8 -51.33,144.4 l -47.89,55.6 v -869.7 h 789.42 c -22.23,15.4 -42.66,29.8 -60.32,42.3 l -204.45,-12.6"
         style="fill:#1b1c28;fill-opacity:1;fill-rule:nonzero;stroke:none"
         id="path36" />
      <path
         d="m 12088.7,15239.4 h -1067.9 v 51.6 h 1067.9 z m -2.4,-1828.9 h -880.5 v 51.5 h 880.5 z m 0,-168.5 h -159.2 v 51.5 h 159.2 z m -220.1,0 h -660.4 v 51.5 h 660.4 z m -615.9,408.5 v -51.5 h -182.6 v 51.5 z m 260,0 v -51.5 h -189.7 v 51.5 z m 484.7,0 v -51.5 h -372.3 v 51.5 z m -110.1,1394.6 h -829 v 51.5 h 829 z m -744.6,-1634.6 h -627.6 v 51.5 h 627.6 z m 0,-168.5 h -276.4 v 51.5 h 276.4 z m -356,0 h -271.6 v 51.5 h 271.6 z m -222.2,-278.7 h -126.4 v 51.5 h 126.4 z m -189.6,901.5 h -367.7 v 51.5 h 367.7 z m -119.5,-732.9 h -248.2 v 51.5 h 248.2 z m 0,953 v -51.5 h -248.2 v 51.5 z m -252.9,143 h 655.7 v -51.5 h -655.7 z m 248.2,194.3 v -51.5 h -248.2 v 51.5 z m -499.04,285.7 h 716.54 v -51.5 h -716.54 z m -63.21,1011.6 h -367.69 v 51.5 h 367.69 z m 0,-843.1 h -367.69 v 51.6 h 367.69 z m -367.69,1063.2 h 248.24 v -51.5 h -248.24 z m 0,168.7 h 655.74 v -51.6 h -655.74 z m 749.34,0 h 168.7 v -51.6 h -168.7 z m -318.44,-388.8 v 51.5 h 126.44 v -51.5 z M 9875.7,14928 v -51.6 h -126.44 v 51.6 z m 611.2,622.9 h -737.64 v 51.5 h 737.64 z m 70.2,51.5 h 189.7 v -51.5 h -189.7 z m 161.6,-194.3 v 51.5 h 189.7 v -51.5 z m 189.7,-117.1 v -51.6 h -189.7 v 51.6 z m 84.3,-194.4 v -51.5 H 9910.78 v 51.5 z m -526.9,311.5 v 51.5 h 182.7 v -51.5 z m -555.02,0 v 51.5 h 470.72 v -51.5 z m 737.72,-117.1 v -51.6 h -737.72 v 51.6 z m -212.8,-1426.2 v 51.5 h 126.4 v -51.5 z m 77,-214.3 h 470.7 v -51.5 h -470.7 z m 880.5,1809.1 v -51.5 h -372.4 v 51.5 z m -533.9,142.8 h 1067.8 v -51.5 h -1067.8 z m -1632.62,585.5 v -2368.1 l 339.61,-326.7 91.41,-48.7 369.5,-394.1 115.6,-35.5 h 229.7 v -51.5 h -61.6 l 664.6,-203.7 H 12083 c 118.9,206.5 254,430.2 373,623.4 -61,102.1 -78,171.1 -78,171.1 162.1,368.6 436.6,861.8 519.8,1000.7 30.4,50.7 74.6,110.9 128.3,172.3 v 1460.8 H 9226.68"
         style="fill:#1b1c28;fill-opacity:1;fill-rule:nonzero;stroke:none"
         id="path38" />
      <path
         d="m 9226.68,16187.9 h -22.62 v -2346.3 l 22.62,-21.8 v 2368.1"
         style="fill:#ffffff;fill-opacity:1;fill-rule:nonzero;stroke:none"
         id="path40" />
      <path
         d="m 9204.06,13655.5 v -895.9 h 22.62 v 869.7 l -22.62,26.2"
         style="fill:#ffffff;fill-opacity:1;fill-rule:nonzero;stroke:none"
         id="path42" />
      <path
         d="m 12258.2,16426.7 c -53.1,0 -96,-43.1 -96,-96 0,-53.1 42.9,-96 96,-96 53,0 96,42.9 96,96 0,52.9 -43,96 -96,96"
         style="fill:#3bbec5;fill-opacity:1;fill-rule:nonzero;stroke:none"
         id="path44" />
      <path
         d="m 12511.1,16426.7 c -53.1,0 -95.9,-43.1 -95.9,-96 0,-53.1 42.8,-96 95.9,-96 53,0 96,42.9 96,96 0,52.9 -43,96 -96,96"
         style="fill:#3bbec5;fill-opacity:1;fill-rule:nonzero;stroke:none"
         id="path46" />
      <path
         d="m 12761.7,16426.7 c -53.1,0 -96.1,-43.1 -96.1,-96 0,-53.1 43,-96 96.1,-96 53,0 96,42.9 96,96 0,52.9 -43,96 -96,96"
         style="fill:#3bbec5;fill-opacity:1;fill-rule:nonzero;stroke:none"
         id="path48" />
      <path
         d="m 9140.43,16108.3 h -168.55 v -51.6 h 168.55 v 51.6"
         style="fill:#ffffff;fill-opacity:1;fill-rule:nonzero;stroke:none"
         id="path50" />
      <path
         d="m 9140.43,15939.6 h -168.55 v -51.5 h 168.55 v 51.5"
         style="fill:#ffffff;fill-opacity:1;fill-rule:nonzero;stroke:none"
         id="path52" />
      <path
         d="m 9140.43,15771 h -168.55 v -51.5 h 168.55 v 51.5"
         style="fill:#ffffff;fill-opacity:1;fill-rule:nonzero;stroke:none"
         id="path54" />
      <path
         d="m 9140.43,15602.4 h -168.55 v -51.5 h 168.55 v 51.5"
         style="fill:#ffffff;fill-opacity:1;fill-rule:nonzero;stroke:none"
         id="path56" />
      <path
         d="m 9140.43,15433.8 h -168.55 v -51.6 h 168.55 v 51.6"
         style="fill:#ffffff;fill-opacity:1;fill-rule:nonzero;stroke:none"
         id="path58" />
      <path
         d="m 9140.43,15265.2 h -168.55 v -51.5 h 168.55 v 51.5"
         style="fill:#ffffff;fill-opacity:1;fill-rule:nonzero;stroke:none"
         id="path60" />
      <path
         d="m 9140.43,15096.6 h -168.55 v -51.5 h 168.55 v 51.5"
         style="fill:#ffffff;fill-opacity:1;fill-rule:nonzero;stroke:none"
         id="path62" />
      <path
         d="m 9140.43,14928 h -168.55 v -51.6 h 168.55 v 51.6"
         style="fill:#ffffff;fill-opacity:1;fill-rule:nonzero;stroke:none"
         id="path64" />
      <path
         d="m 9140.43,14759.4 h -168.55 v -51.5 h 168.55 v 51.5"
         style="fill:#ffffff;fill-opacity:1;fill-rule:nonzero;stroke:none"
         id="path66" />
      <path
         d="m 9140.43,14590.8 h -168.55 v -51.5 h 168.55 v 51.5"
         style="fill:#ffffff;fill-opacity:1;fill-rule:nonzero;stroke:none"
         id="path68" />
      <path
         d="m 9140.43,14422.2 h -168.55 v -51.5 h 168.55 v 51.5"
         style="fill:#ffffff;fill-opacity:1;fill-rule:nonzero;stroke:none"
         id="path70" />
      <path
         d="m 9140.43,14253.6 h -168.55 v -51.5 h 168.55 v 51.5"
         style="fill:#ffffff;fill-opacity:1;fill-rule:nonzero;stroke:none"
         id="path72" />
      <path
         d="m 9140.43,14084.9 h -168.55 v -51.5 h 168.55 v 51.5"
         style="fill:#ffffff;fill-opacity:1;fill-rule:nonzero;stroke:none"
         id="path74" />
      <path
         d="m 9010.9,13916.3 h -39.02 v -51.5 h 51.83 l -11.21,13.1 c -2.27,15.1 -2.38,27.3 -1.6,38.4"
         style="fill:#ffffff;fill-opacity:1;fill-rule:nonzero;stroke:none"
         id="path76" />
      <path
         d="m 9140.43,13916.3 h -14.02 l 14.02,-13.4 z"
         style="fill:#ffffff;fill-opacity:1;fill-rule:nonzero;stroke:none"
         id="path78" />
      <path
         d="m 8971.88,13747.8 v -51.5 h 168.55 v 33 l -15.9,18.5 h -152.65"
         style="fill:#ffffff;fill-opacity:1;fill-rule:nonzero;stroke:none"
         id="path80" />
      <path
         d="m 8971.88,13527.6 h 168.55 v 51.6 h -168.55 v -51.6"
         style="fill:#ffffff;fill-opacity:1;fill-rule:nonzero;stroke:none"
         id="path82" />
      <path
         d="m 8971.88,13359 h 168.55 v 51.5 h -168.55 v -51.5"
         style="fill:#ffffff;fill-opacity:1;fill-rule:nonzero;stroke:none"
         id="path84" />
      <path
         d="m 8971.88,13190.5 h 168.55 v 51.5 h -168.55 v -51.5"
         style="fill:#ffffff;fill-opacity:1;fill-rule:nonzero;stroke:none"
         id="path86" />
      <path
         d="m 8971.88,13021.8 h 168.55 v 51.6 h -168.55 v -51.6"
         style="fill:#ffffff;fill-opacity:1;fill-rule:nonzero;stroke:none"
         id="path88" />
      <path
         d="m 9140.43,12904.7 h -168.55 v -44.7 l 1.4,-6.8 h 167.15 v 51.5"
         style="fill:#ffffff;fill-opacity:1;fill-rule:nonzero;stroke:none"
         id="path90" />
      <path
         d="m 9974.1,16108.3 h -655.74 v -51.6 h 655.74 v 51.6"
         style="fill:#ed3947;fill-opacity:1;fill-rule:nonzero;stroke:none"
         id="path92" />
      <path
         d="m 10655.8,14227.9 h -655.7 v -51.5 h 655.7 v 51.5"
         style="fill:#ed3947;fill-opacity:1;fill-rule:nonzero;stroke:none"
         id="path94" />
      <path
         d="m 10248.3,14370.7 v 51.5 h -248.2 v -51.5 h 248.2"
         style="fill:#ed3947;fill-opacity:1;fill-rule:nonzero;stroke:none"
         id="path96" />
      <path
         d="m 9566.6,15939.6 h -248.24 v -51.5 h 248.24 v 51.5"
         style="fill:#3bbec5;fill-opacity:1;fill-rule:nonzero;stroke:none"
         id="path98" />
      <path
         d="m 9318.36,15719.5 h 367.69 v 51.5 h -367.69 v -51.5"
         style="fill:#3bbec5;fill-opacity:1;fill-rule:nonzero;stroke:none"
         id="path100" />
      <path
         d="m 9749.26,15771 v -51.5 h 126.44 v 51.5 h -126.44"
         style="fill:#00adef;fill-opacity:1;fill-rule:nonzero;stroke:none"
         id="path102" />
      <path
         d="m 10253,14033.4 v 51.5 h -248.2 v -51.5 h 248.2"
         style="fill:#3bbec5;fill-opacity:1;fill-rule:nonzero;stroke:none"
         id="path104" />
      <path
         d="m 10004.8,13864.8 h 367.7 v 51.5 h -367.7 v -51.5"
         style="fill:#3bbec5;fill-opacity:1;fill-rule:nonzero;stroke:none"
         id="path106" />
      <path
         d="m 10562.1,13916.3 h -126.4 v -51.5 h 126.4 v 51.5"
         style="fill:#00adef;fill-opacity:1;fill-rule:nonzero;stroke:none"
         id="path108" />
      <path
         d="m 10004.8,13131.9 h 248.2 v 51.5 h -248.2 v -51.5"
         style="fill:#3bbec5;fill-opacity:1;fill-rule:nonzero;stroke:none"
         id="path110" />
      <path
         d="m 10372.5,12963.3 v 51.5 h -229.7 l 168.1,-51.5 h 61.6"
         style="fill:#3bbec5;fill-opacity:1;fill-rule:nonzero;stroke:none"
         id="path112" />
      <path
         d="m 10435.7,12963.3 h 126.4 v 51.5 h -126.4 v -51.5"
         style="fill:#00adef;fill-opacity:1;fill-rule:nonzero;stroke:none"
         id="path114" />
      <path
         d="m 9318.36,14876.4 h 367.69 v 51.6 h -367.69 v -51.6"
         style="fill:#3bbec5;fill-opacity:1;fill-rule:nonzero;stroke:none"
         id="path116" />
      <path
         d="m 9749.26,14876.4 h 126.44 v 51.6 h -126.44 v -51.6"
         style="fill:#00adef;fill-opacity:1;fill-rule:nonzero;stroke:none"
         id="path118" />
      <path
         d="m 10236.4,16108.3 h -168.7 v -51.6 h 168.7 v 51.6"
         style="fill:#80cc28;fill-opacity:1;fill-rule:nonzero;stroke:none"
         id="path120" />
      <path
         d="m 10465.8,14707.9 h -716.54 v -51.5 h 716.54 v 51.5"
         style="fill:#80cc28;fill-opacity:1;fill-rule:nonzero;stroke:none"
         id="path122" />
      <path
         d="m 9749.26,15550.9 h 737.64 v 51.5 h -737.64 v -51.5"
         style="fill:#ffffff;fill-opacity:1;fill-rule:nonzero;stroke:none"
         id="path124" />
      <path
         d="m 11927.1,15602.4 h -1067.8 v -51.5 h 1067.8 v 51.5"
         style="fill:#ffffff;fill-opacity:1;fill-rule:nonzero;stroke:none"
         id="path126" />
      <path
         d="m 10746.8,15602.4 h -189.7 v -51.5 h 189.7 v 51.5"
         style="fill:#ffffff;fill-opacity:1;fill-rule:nonzero;stroke:none"
         id="path128" />
      <path
         d="m 9910.78,15239.4 h 737.72 v 51.6 h -737.72 v -51.6"
         style="fill:#ffffff;fill-opacity:1;fill-rule:nonzero;stroke:none"
         id="path130" />
      <path
         d="m 11020.8,15239.4 h 1067.9 v 51.6 h -1067.9 v -51.6"
         style="fill:#ffffff;fill-opacity:1;fill-rule:nonzero;stroke:none"
         id="path132" />
      <path
         d="m 10718.7,15239.4 h 189.7 v 51.6 h -189.7 v -51.6"
         style="fill:#ffffff;fill-opacity:1;fill-rule:nonzero;stroke:none"
         id="path134" />
      <path
         d="m 9910.78,15459.6 v -51.5 h 470.72 v 51.5 h -470.72"
         style="fill:#ffffff;fill-opacity:1;fill-rule:nonzero;stroke:none"
         id="path136" />
      <path
         d="m 10648.5,15459.6 h -182.7 v -51.5 h 182.7 v 51.5"
         style="fill:#ffffff;fill-opacity:1;fill-rule:nonzero;stroke:none"
         id="path138" />
      <path
         d="m 11393.2,15408.1 v 51.5 h -372.4 v -51.5 h 372.4"
         style="fill:#ffffff;fill-opacity:1;fill-rule:nonzero;stroke:none"
         id="path140" />
      <path
         d="m 10908.4,15459.6 h -189.7 v -51.5 h 189.7 v 51.5"
         style="fill:#ffffff;fill-opacity:1;fill-rule:nonzero;stroke:none"
         id="path142" />
      <path
         d="m 9910.78,15045.1 h 1081.92 v 51.5 H 9910.78 v -51.5"
         style="fill:#ffffff;fill-opacity:1;fill-rule:nonzero;stroke:none"
         id="path144" />
      <path
         d="m 11055.9,15045.1 h 829 v 51.5 h -829 v -51.5"
         style="fill:#ffffff;fill-opacity:1;fill-rule:nonzero;stroke:none"
         id="path146" />
      <path
         d="m 10983.4,13650.5 h -470.7 v -51.5 h 470.7 v 51.5"
         style="fill:#ffffff;fill-opacity:1;fill-rule:nonzero;stroke:none"
         id="path148" />
      <path
         d="m 11250.3,13599 v 51.5 h -182.6 v -51.5 h 182.6"
         style="fill:#ffffff;fill-opacity:1;fill-rule:nonzero;stroke:none"
         id="path150" />
      <path
         d="m 11622.7,13599 h 372.3 v 51.5 h -372.3 v -51.5"
         style="fill:#ffffff;fill-opacity:1;fill-rule:nonzero;stroke:none"
         id="path152" />
      <path
         d="m 11510.3,13599 v 51.5 h -189.7 v -51.5 h 189.7"
         style="fill:#ffffff;fill-opacity:1;fill-rule:nonzero;stroke:none"
         id="path154" />
      <path
         d="m 10512.7,13410.5 h 627.6 v 51.5 h -627.6 v -51.5"
         style="fill:#ffffff;fill-opacity:1;fill-rule:nonzero;stroke:none"
         id="path156" />
      <path
         d="m 11205.8,13410.5 h 880.5 v 51.5 h -880.5 v -51.5"
         style="fill:#ffffff;fill-opacity:1;fill-rule:nonzero;stroke:none"
         id="path158" />
      <path
         d="m 10512.7,13242 h 271.6 v 51.5 h -271.6 v -51.5"
         style="fill:#ffffff;fill-opacity:1;fill-rule:nonzero;stroke:none"
         id="path160" />
      <path
         d="m 10863.9,13242 h 276.4 v 51.5 h -276.4 v -51.5"
         style="fill:#ffffff;fill-opacity:1;fill-rule:nonzero;stroke:none"
         id="path162" />
      <path
         d="m 11927.1,13242 h 159.2 v 51.5 h -159.2 v -51.5"
         style="fill:#ffffff;fill-opacity:1;fill-rule:nonzero;stroke:none"
         id="path164" />
      <path
         d="m 11205.8,13242 h 660.4 v 51.5 h -660.4 v -51.5"
         style="fill:#ffffff;fill-opacity:1;fill-rule:nonzero;stroke:none"
         id="path166" />
      <path
         d="m 13199.9,16056.7 v 51.6 h 168.6 v -51.6 z m 168.6,-168.6 h -168.6 v 51.5 h 168.6 z m 0,-168.6 h -168.6 v 51.5 h 168.6 z m 0,-168.6 h -168.6 v 51.5 h 168.6 z m 0,-168.7 h -168.6 v 51.6 h 168.6 z m 0,-168.5 h -168.6 v 51.5 h 168.6 z m 0,-168.6 h -168.6 v 51.5 h 168.6 z m 63.6,1142.8 h -307.2 v -1357.5 c 23.9,22.8 49.1,44.8 75,66.2 v 31.4 h 38.9 c 58.3,44.5 120.4,83.4 184,112.9 3.1,2.1 6.3,4.3 9.3,6.3 v 1140.7"
         style="fill:#223150;fill-opacity:1;fill-rule:nonzero;stroke:none"
         id="path168" />
      <path
         d="m 13124.9,12769 v -9.4 h 98.7 c -1.2,6 -2.5,12.2 -3.7,18.4 -22.6,9.3 -44.8,18.8 -66.3,28.5 -9.4,-12.4 -19.1,-24.9 -28.7,-37.5"
         style="fill:#223150;fill-opacity:1;fill-rule:nonzero;stroke:none"
         id="path170" />
      <path
         d="m 13546.4,15771 h 169 v -51.5 h -169 z m 0,168.6 h 114.1 v -51.5 h -114.1 z m 0,168.7 h 301.3 v -51.6 h -301.3 z m 344.3,0 h 77.5 v -51.6 h -77.5 z m -146.3,-388.8 v 51.5 h 58.1 v -51.5 z m 338.9,-168.6 h -338.9 v 51.5 h 338.9 z m -628.6,-488.2 c 228.2,156.7 364.3,262.2 478.6,345.4 h -114.7 v 51.5 h 184.9 c 34,27.5 72.3,64 112.1,103.4 v 39.4 h 39.4 c 55.6,56.1 112.3,113.8 162.8,157.8 -4.2,2.8 -6.7,7.9 -4.8,12.9 2.2,5.8 8.7,8.8 14.6,6.6 3.1,-1.2 6.7,-1.8 9.9,-3 19.5,16 37.9,29.7 54.6,39.5 11.4,6.7 23.8,11.8 36.4,17 l -22.5,354.7 h -10.2 c -67.1,-25.7 -129.1,-41.2 -181.3,-41.2 -39.7,0 -76.2,15.2 -109.6,41.2 h -650.2 v -1125.2"
         style="fill:#223150;fill-opacity:1;fill-rule:nonzero;stroke:none"
         id="path172" />
      <path
         d="m 13454.7,15062.7 v 1125.2 h -22.6 v -1140.7 c 7.6,5.2 15.2,10.4 22.6,15.5"
         style="fill:#ffffff;fill-opacity:1;fill-rule:nonzero;stroke:none"
         id="path174" />
      <path
         d="m 13199.9,16108.3 v -51.6 h 168.6 v 51.6 h -168.6"
         style="fill:#ffffff;fill-opacity:1;fill-rule:nonzero;stroke:none"
         id="path176" />
      <path
         d="m 13199.9,15888.1 h 168.6 v 51.5 h -168.6 v -51.5"
         style="fill:#ffffff;fill-opacity:1;fill-rule:nonzero;stroke:none"
         id="path178" />
      <path
         d="m 13199.9,15719.5 h 168.6 v 51.5 h -168.6 v -51.5"
         style="fill:#ffffff;fill-opacity:1;fill-rule:nonzero;stroke:none"
         id="path180" />
      <path
         d="m 13199.9,15550.9 h 168.6 v 51.5 h -168.6 v -51.5"
         style="fill:#ffffff;fill-opacity:1;fill-rule:nonzero;stroke:none"
         id="path182" />
      <path
         d="m 13199.9,15382.2 h 168.6 v 51.6 h -168.6 v -51.6"
         style="fill:#ffffff;fill-opacity:1;fill-rule:nonzero;stroke:none"
         id="path184" />
      <path
         d="m 13199.9,15213.7 h 168.6 v 51.5 h -168.6 v -51.5"
         style="fill:#ffffff;fill-opacity:1;fill-rule:nonzero;stroke:none"
         id="path186" />
      <path
         d="m 13199.9,15045.1 h 168.6 v 51.5 h -168.6 v -51.5"
         style="fill:#ffffff;fill-opacity:1;fill-rule:nonzero;stroke:none"
         id="path188" />
      <path
         d="m 13199.9,14896.6 c 12.8,10.6 25.6,21.3 38.9,31.4 h -38.9 v -31.4"
         style="fill:#ffffff;fill-opacity:1;fill-rule:nonzero;stroke:none"
         id="path190" />
      <path
         d="m 13847.7,16108.3 h -301.3 v -51.6 h 301.3 v 51.6"
         style="fill:#ed3947;fill-opacity:1;fill-rule:nonzero;stroke:none"
         id="path192" />
      <path
         d="m 13660.5,15939.6 h -114.1 v -51.5 h 114.1 v 51.5"
         style="fill:#3bbec5;fill-opacity:1;fill-rule:nonzero;stroke:none"
         id="path194" />
      <path
         d="m 13715.4,15771 h -169 v -51.5 h 169 v 51.5"
         style="fill:#3bbec5;fill-opacity:1;fill-rule:nonzero;stroke:none"
         id="path196" />
      <path
         d="m 13744.4,15771 v -51.5 h 58.1 v 51.5 h -58.1"
         style="fill:#00adef;fill-opacity:1;fill-rule:nonzero;stroke:none"
         id="path198" />
      <path
         d="m 13968.2,16108.3 h -77.5 v -51.6 h 77.5 v 51.6"
         style="fill:#80cc28;fill-opacity:1;fill-rule:nonzero;stroke:none"
         id="path200" />
      <path
         d="m 13744.4,15550.9 h 338.9 v 51.5 h -338.9 v -51.5"
         style="fill:#ffffff;fill-opacity:1;fill-rule:nonzero;stroke:none"
         id="path202" />
      <path
         d="m 14155,15602.4 h -39.4 v -39.4 c 13,12.9 26.2,26.1 39.4,39.4"
         style="fill:#ffffff;fill-opacity:1;fill-rule:nonzero;stroke:none"
         id="path204" />
      <path
         d="m 14003.5,15459.6 h -184.9 v -51.5 h 114.7 c 15.2,11 30,21.7 44.6,32 8.2,5.8 16.7,12.4 25.6,19.5"
         style="fill:#ffffff;fill-opacity:1;fill-rule:nonzero;stroke:none"
         id="path206" />
      <path
         d="m 4829.69,13790.6 h -68.48 l 497.11,-2372.4 h 68.4 l -497.03,2372.4"
         style="fill:#252745;fill-opacity:1;fill-rule:nonzero;stroke:none"
         id="path208" />
      <path
         d="m 5233.28,13400.5 -31.13,149.7 h 2138.87 l 28.75,-149.7 H 5409.61 l 0.16,-0.7 H 7369.88 L 7718.24,11585 H 5773.16 l -11.05,-2.2 -0.47,2.2 h -151.05 l -377.15,1814.8 h 164.8 l 3.56,0.7 z m 3249.57,149.7 38.13,-149.7 h -923.75 l 0.11,-0.7 h 923.79 L 8901.45,11585 h -970.2 l -11.13,-2.1 -0.39,2.1 h -132.97 l -365.74,1814.8 h 164.84 l 3.83,0.7 H 7420.9 l -28.71,149.7 z m 617.58,-2062.9 -455.04,2171.9 H 5031.68 l 455.08,-2171.9 h 3613.67"
         style="fill:#15151c;fill-opacity:1;fill-rule:nonzero;stroke:none"
         id="path210" />
      <path
         d="m 8186.45,11169 -163.75,183.1 c -64.73,66 -230.51,66.1 -230.51,66.1 h -2465.47 -66.25 l 56.83,-249.2 h 1690 1179.15"
         style="fill:#252745;fill-opacity:1;fill-rule:nonzero;stroke:none"
         id="path212" />
      <path
         d="m 11280,11352.1 c -27.4,27.9 -72.8,43.9 -116.1,53.3 -59.2,12.7 -114.5,12.8 -114.5,12.8 h -15.9 -1759.59 -68.4 -1413.32 c 0,0 165.78,-0.1 230.51,-66.1 l 163.75,-183.1 h 1260.58 l -70.12,124.6 h 888.69 l 70.2,-124.6 h 817.6 25.5 108.4 156.4 l -121,135.3 -42.7,47.8"
         style="fill:#424881;fill-opacity:1;fill-rule:nonzero;stroke:none"
         id="path214" />
      <path
         d="m 9376.91,11293.6 70.12,-124.6 h 888.77 l -70.2,124.6 h -888.69"
         style="fill:#252745;fill-opacity:1;fill-rule:nonzero;stroke:none"
         id="path216" />
      <path
         d="m 5392.3,13241.1 h -87.1 l -5.71,27.3 h 87.15 z m 18.48,-89.2 h -87.07 l -5.66,27.2 h 87.07 z m 18.44,-89.4 h -86.99 l -5.67,27.3 h 87.03 z m 18.48,-89.1 h -86.96 l -5.66,27.2 h 86.95 z m 18.43,-89.3 h -86.87 l -5.67,27.3 h 86.92 z m 18.52,-89.3 h -86.88 l -5.66,27.3 h 86.87 z m 18.44,-89.2 h -86.8 l -5.63,27.3 h 86.8 z m 18.47,-89.2 h -86.72 l -5.66,27.3 h 86.72 z m 18.48,-89.3 h -86.68 l -5.66,27.3 h 86.68 z m 18.44,-89.2 h -86.6 l -5.67,27.2 h 86.64 z m 18.47,-89.2 h -86.52 l -5.7,27.2 h 86.56 z m 18.48,-89.4 h -86.48 l -5.67,27.3 h 86.49 z m 18.4,-89.2 h -86.37 l -5.66,27.3 h 86.44 z m 18.51,-89.2 h -86.36 l -5.67,27.3 h 86.37 z m 18.44,-89.3 h -86.29 l -5.66,27.3 h 86.29 z m 18.44,-89.2 h -86.21 l -5.67,27.3 h 86.29 z m 18.51,-89.2 h -86.21 l -5.66,27.2 h 86.25 z m 18.48,-89.3 h -86.13 l -5.67,27.3 h 86.14 z m 18.48,-89.2 h -86.1 l -5.66,27.2 h 86.09 z m -443.71,1722.9 h 87.22 l 5.59,-27.3 h -87.11 z m 117.26,42.2 h -164.8 L 5610.59,11585 h 151.05 l -374.45,1812.5 11.05,2.3"
         style="fill:#1b1c28;fill-opacity:1;fill-rule:nonzero;stroke:none"
         id="path218" />
      <path
         d="m 5743.44,13062.5 -5.63,27.3 h 380.86 l 5.47,-27.3 z m -148.79,-356.9 -5.63,27.3 h 189.34 l 5.62,-27.3 z m -97.66,473.5 h 189.92 l 5.63,-27.2 h -189.88 z m -18.36,89.3 h 128.28 l 5.67,-27.3 h -128.4 z m 311.88,-116.5 h -65.35 l -5.55,27.2 h 65.35 z m -330.28,205.7 h 339.15 l 5.54,-27.3 h -339.1 z m 474.81,0 5.51,-27.3 h -87.19 l -5.59,27.3 z m 317.77,-267.8 5.47,-27.3 h -97.89 l -5.47,27.3 z m 609.3,0 5.31,-27.3 h -551.13 l -5.39,27.3 z m 120.94,-192.1 h -550.43 l -5.43,27.3 h 550.58 z m 121.83,-868.3 h -190.7 l -5.35,27.2 h 190.74 z m 66.29,-99.7 h -450.58 l -5.43,27.2 h 450.66 z m 17.46,-89.3 h -81.44 l -5.31,27.3 h 81.4 z m -450.31,0 -5.43,27.3 h 337.74 l 5.42,-27.3 z m -174.8,0 -5.51,27.3 h 141.37 l 5.42,-27.3 z m -179.65,0 -5.51,27.3 h 138.94 l 5.47,-27.3 z m -9.61,-147.5 -5.51,27.3 h 64.61 l 5.51,-27.3 z m -13.87,264 h 321.21 l 5.39,-27.2 h -321.17 z m 363.13,72.5 H 6630 l -5.39,27.2 h 93.48 z m 133.2,0 h -97.23 l -5.35,27.2 h 97.11 z m -385.51,765.4 -5.39,27.3 h 427.03 l 5.35,-27.3 z m -130.94,-738.2 h 241.06 l 5.47,-27.2 h -241.02 z m -186.13,-363.7 -5.55,27.3 h 187.86 l 5.5,-27.3 z m -23.67,116.5 h 126.87 l 5.55,-27.2 h -126.87 z m -78.99,388 H 6240 l 5.51,-27.3 h -188.52 z m -18.16,89.2 h 127.31 l 5.54,-27.3 h -127.3 z m 309.41,-116.5 h -64.84 l -5.51,27.3 h 64.92 z m -327.22,192.2 h 336.6 l 5.51,-27.3 h -336.57 z m -20.98,102.8 h 127.54 l 5.51,-27.2 h -127.5 z m -159.84,151.3 h 368.63 l 5.51,-27.4 h -368.56 z m 7.54,370.5 -5.55,27.4 h 242.81 l 5.51,-27.4 z m 567.11,27.4 h 192.11 l 5.35,-27.4 h -192 z m 23.94,-192.2 5.39,-27.3 h -557.26 l -5.55,27.3 z m -64.06,102.9 5.43,-27.3 h -97.77 l -5.51,27.3 z m -110.27,61.9 -5.47,27.4 h 97.85 l 5.51,-27.4 z m -135.94,27.4 h 94.22 l 5.5,-27.4 h -94.18 z m 112.22,-89.3 5.51,-27.3 h -380.27 l -5.55,27.3 z m -424.37,-192.1 h 65.16 l 5.58,-27.3 h -65.12 z m -37.7,-1147.9 h 1945.08 l -348.36,1814.8 H 5409.77 l 374.45,-1812.5 -11.06,-2.3"
         style="fill:#1b1c28;fill-opacity:1;fill-rule:nonzero;stroke:none"
         id="path220" />
      <path
         d="m 5387.19,13397.5 374.45,-1812.5 0.47,-2.2 11.05,2.2 11.06,2.3 -374.45,1812.5 -0.16,0.7 h -7.81 l -3.56,-0.7 -11.05,-2.3"
         style="fill:#ffffff;fill-opacity:1;fill-rule:nonzero;stroke:none"
         id="path222" />
      <path
         d="m 6967.77,13424.6 c 27.43,0 45.28,22.7 39.77,50.7 -5.39,28.1 -32.15,50.9 -59.57,50.9 -27.5,0 -45.27,-22.8 -39.81,-50.9 5.51,-28 32.15,-50.7 59.61,-50.7"
         style="fill:#3bbec5;fill-opacity:1;fill-rule:nonzero;stroke:none"
         id="path224" />
      <path
         d="m 7098.63,13424.6 c 27.46,0 45.28,22.7 39.89,50.7 -5.43,28.1 -32.11,50.9 -59.57,50.9 -27.5,0 -45.28,-22.8 -39.89,-50.9 5.51,-28 32.11,-50.7 59.57,-50.7"
         style="fill:#3bbec5;fill-opacity:1;fill-rule:nonzero;stroke:none"
         id="path226" />
      <path
         d="m 7228.28,13424.6 c 27.5,0 45.31,22.7 39.96,50.7 -5.39,28.1 -32.11,50.9 -59.53,50.9 -27.5,0 -45.35,-22.8 -39.92,-50.9 5.43,-28 32.11,-50.7 59.49,-50.7"
         style="fill:#3bbec5;fill-opacity:1;fill-rule:nonzero;stroke:none"
         id="path228" />
      <path
         d="m 5368.2,13357.6 h -87.22 l 5.7,-27.3 h 87.11 l -5.59,27.3"
         style="fill:#ffffff;fill-opacity:1;fill-rule:nonzero;stroke:none"
         id="path230" />
      <path
         d="m 5299.49,13268.4 5.71,-27.3 h 87.1 l -5.66,27.3 h -87.15"
         style="fill:#ffffff;fill-opacity:1;fill-rule:nonzero;stroke:none"
         id="path232" />
      <path
         d="m 5323.71,13151.9 h 87.07 l -5.66,27.2 h -87.07 l 5.66,-27.2"
         style="fill:#ffffff;fill-opacity:1;fill-rule:nonzero;stroke:none"
         id="path234" />
      <path
         d="m 5342.23,13062.5 h 86.99 l -5.63,27.3 h -87.03 l 5.67,-27.3"
         style="fill:#ffffff;fill-opacity:1;fill-rule:nonzero;stroke:none"
         id="path236" />
      <path
         d="m 5360.74,12973.4 h 86.96 l -5.67,27.2 h -86.95 l 5.66,-27.2"
         style="fill:#ffffff;fill-opacity:1;fill-rule:nonzero;stroke:none"
         id="path238" />
      <path
         d="m 5379.26,12884.1 h 86.87 l -5.62,27.3 h -86.92 l 5.67,-27.3"
         style="fill:#ffffff;fill-opacity:1;fill-rule:nonzero;stroke:none"
         id="path240" />
      <path
         d="m 5397.77,12794.8 h 86.88 l -5.67,27.3 h -86.87 l 5.66,-27.3"
         style="fill:#ffffff;fill-opacity:1;fill-rule:nonzero;stroke:none"
         id="path242" />
      <path
         d="m 5416.29,12705.6 h 86.8 l -5.63,27.3 h -86.8 l 5.63,-27.3"
         style="fill:#ffffff;fill-opacity:1;fill-rule:nonzero;stroke:none"
         id="path244" />
      <path
         d="m 5434.84,12616.4 h 86.72 l -5.66,27.3 h -86.72 l 5.66,-27.3"
         style="fill:#ffffff;fill-opacity:1;fill-rule:nonzero;stroke:none"
         id="path246" />
      <path
         d="m 5453.36,12527.1 h 86.68 l -5.66,27.3 h -86.68 l 5.66,-27.3"
         style="fill:#ffffff;fill-opacity:1;fill-rule:nonzero;stroke:none"
         id="path248" />
      <path
         d="m 5471.88,12437.9 h 86.6 l -5.63,27.2 h -86.64 l 5.67,-27.2"
         style="fill:#ffffff;fill-opacity:1;fill-rule:nonzero;stroke:none"
         id="path250" />
      <path
         d="m 5490.43,12348.7 h 86.52 l -5.66,27.2 h -86.56 l 5.7,-27.2"
         style="fill:#ffffff;fill-opacity:1;fill-rule:nonzero;stroke:none"
         id="path252" />
      <path
         d="m 5508.95,12259.3 h 86.48 l -5.66,27.3 h -86.49 l 5.67,-27.3"
         style="fill:#ffffff;fill-opacity:1;fill-rule:nonzero;stroke:none"
         id="path254" />
      <path
         d="m 5527.46,12170.1 h 86.37 l -5.59,27.3 h -86.44 l 5.66,-27.3"
         style="fill:#ffffff;fill-opacity:1;fill-rule:nonzero;stroke:none"
         id="path256" />
      <path
         d="m 5545.98,12080.9 h 86.36 l -5.66,27.3 h -86.37 l 5.67,-27.3"
         style="fill:#ffffff;fill-opacity:1;fill-rule:nonzero;stroke:none"
         id="path258" />
      <path
         d="m 5564.49,11991.6 h 86.29 l -5.66,27.3 h -86.29 l 5.66,-27.3"
         style="fill:#ffffff;fill-opacity:1;fill-rule:nonzero;stroke:none"
         id="path260" />
      <path
         d="m 5583.01,11902.4 h 86.21 l -5.59,27.3 h -86.29 l 5.67,-27.3"
         style="fill:#ffffff;fill-opacity:1;fill-rule:nonzero;stroke:none"
         id="path262" />
      <path
         d="m 5601.52,11813.2 h 86.21 l -5.62,27.2 h -86.25 l 5.66,-27.2"
         style="fill:#ffffff;fill-opacity:1;fill-rule:nonzero;stroke:none"
         id="path264" />
      <path
         d="m 5620.08,11723.9 h 86.13 l -5.66,27.3 h -86.14 l 5.67,-27.3"
         style="fill:#ffffff;fill-opacity:1;fill-rule:nonzero;stroke:none"
         id="path266" />
      <path
         d="m 5638.59,11634.7 h 86.1 l -5.67,27.2 h -86.09 l 5.66,-27.2"
         style="fill:#ffffff;fill-opacity:1;fill-rule:nonzero;stroke:none"
         id="path268" />
      <path
         d="m 5799.38,13357.6 h -339.15 l 5.59,-27.3 h 339.1 l -5.54,27.3"
         style="fill:#ed3947;fill-opacity:1;fill-rule:nonzero;stroke:none"
         id="path270" />
      <path
         d="m 6352.11,12362.3 h -336.6 l 5.54,-27.3 h 336.57 l -5.51,27.3"
         style="fill:#ed3947;fill-opacity:1;fill-rule:nonzero;stroke:none"
         id="path272" />
      <path
         d="m 6122.07,12465.1 h -127.54 l 5.55,-27.2 h 127.5 l -5.51,27.2"
         style="fill:#ed3947;fill-opacity:1;fill-rule:nonzero;stroke:none"
         id="path274" />
      <path
         d="m 5606.91,13268.4 h -128.28 l 5.55,-27.3 h 128.4 l -5.67,27.3"
         style="fill:#3bbec5;fill-opacity:1;fill-rule:nonzero;stroke:none"
         id="path276" />
      <path
         d="m 5686.91,13179.1 h -189.92 l 5.67,-27.2 h 189.88 l -5.63,27.2"
         style="fill:#3bbec5;fill-opacity:1;fill-rule:nonzero;stroke:none"
         id="path278" />
      <path
         d="m 5725.16,13151.9 h 65.35 l -5.55,27.2 h -65.35 l 5.55,-27.2"
         style="fill:#00adef;fill-opacity:1;fill-rule:nonzero;stroke:none"
         id="path280" />
      <path
         d="m 6160.63,12286.6 h -127.31 l 5.55,-27.3 h 127.3 l -5.54,27.3"
         style="fill:#3bbec5;fill-opacity:1;fill-rule:nonzero;stroke:none"
         id="path282" />
      <path
         d="m 6240,12197.4 h -188.52 l 5.51,-27.3 h 188.52 l -5.51,27.3"
         style="fill:#3bbec5;fill-opacity:1;fill-rule:nonzero;stroke:none"
         id="path284" />
      <path
         d="m 6277.89,12170.1 h 64.84 l -5.43,27.3 h -64.92 l 5.51,-27.3"
         style="fill:#00adef;fill-opacity:1;fill-rule:nonzero;stroke:none"
         id="path286" />
      <path
         d="m 6257.34,11809.4 h -126.87 l 5.55,-27.2 h 126.87 l -5.55,27.2"
         style="fill:#3bbec5;fill-opacity:1;fill-rule:nonzero;stroke:none"
         id="path288" />
      <path
         d="m 6148.59,11720.2 5.55,-27.3 h 187.81 l -5.5,27.3 h -187.86"
         style="fill:#3bbec5;fill-opacity:1;fill-rule:nonzero;stroke:none"
         id="path290" />
      <path
         d="m 6368.75,11720.2 5.51,-27.3 h 64.61 l -5.51,27.3 h -64.61"
         style="fill:#00adef;fill-opacity:1;fill-rule:nonzero;stroke:none"
         id="path292" />
      <path
         d="m 5589.02,12732.9 5.63,-27.3 h 189.33 l -5.62,27.3 h -189.34"
         style="fill:#3bbec5;fill-opacity:1;fill-rule:nonzero;stroke:none"
         id="path294" />
      <path
         d="m 5876.02,12732.9 h -65.16 l 5.62,-27.3 h 65.12 l -5.58,27.3"
         style="fill:#00adef;fill-opacity:1;fill-rule:nonzero;stroke:none"
         id="path296" />
      <path
         d="m 5940.55,13330.3 -5.51,27.3 h -87.27 l 5.59,-27.3 h 87.19"
         style="fill:#80cc28;fill-opacity:1;fill-rule:nonzero;stroke:none"
         id="path298" />
      <path
         d="m 6203.32,12616.4 h -368.63 l 5.58,-27.4 h 368.56 l -5.51,27.4"
         style="fill:#80cc28;fill-opacity:1;fill-rule:nonzero;stroke:none"
         id="path300" />
      <path
         d="m 6118.67,13089.8 h -380.86 l 5.63,-27.3 h 380.7 l -5.47,27.3"
         style="fill:#ffffff;fill-opacity:1;fill-rule:nonzero;stroke:none"
         id="path302" />
      <path
         d="m 6867.42,13062.5 -5.31,27.3 H 6310.9 l 5.39,-27.3 h 551.13"
         style="fill:#ffffff;fill-opacity:1;fill-rule:nonzero;stroke:none"
         id="path304" />
      <path
         d="m 6258.28,13062.5 -5.47,27.3 h -97.89 l 5.47,-27.3 h 97.89"
         style="fill:#ffffff;fill-opacity:1;fill-rule:nonzero;stroke:none"
         id="path306" />
      <path
         d="m 5860.47,12897.7 h 380.27 l -5.51,27.3 h -380.31 l 5.55,-27.3"
         style="fill:#ffffff;fill-opacity:1;fill-rule:nonzero;stroke:none"
         id="path308" />
      <path
         d="m 6432.62,12897.7 h 550.43 l -5.28,27.3 h -550.58 l 5.43,-27.3"
         style="fill:#ffffff;fill-opacity:1;fill-rule:nonzero;stroke:none"
         id="path310" />
      <path
         d="m 6374.65,12897.7 -5.43,27.3 h -97.85 l 5.51,-27.3 h 97.77"
         style="fill:#ffffff;fill-opacity:1;fill-rule:nonzero;stroke:none"
         id="path312" />
      <path
         d="m 5836.68,13014.3 5.55,-27.4 H 6085 l -5.51,27.4 h -242.81"
         style="fill:#ffffff;fill-opacity:1;fill-rule:nonzero;stroke:none"
         id="path314" />
      <path
         d="m 6217.23,13014.3 h -94.22 l 5.54,-27.4 h 94.18 l -5.5,27.4"
         style="fill:#ffffff;fill-opacity:1;fill-rule:nonzero;stroke:none"
         id="path316" />
      <path
         d="m 6601.45,13014.3 h -192.11 l 5.46,-27.4 h 192 l -5.35,27.4"
         style="fill:#ffffff;fill-opacity:1;fill-rule:nonzero;stroke:none"
         id="path318" />
      <path
         d="m 6253.48,13014.3 5.47,-27.4 h 97.89 l -5.51,27.4 h -97.85"
         style="fill:#ffffff;fill-opacity:1;fill-rule:nonzero;stroke:none"
         id="path320" />
      <path
         d="m 5881.41,12794.8 h 557.26 l -5.39,27.3 h -557.42 l 5.55,-27.3"
         style="fill:#ffffff;fill-opacity:1;fill-rule:nonzero;stroke:none"
         id="path322" />
      <path
         d="m 6892.85,12822.1 h -427.03 l 5.39,-27.3 h 426.99 l -5.35,27.3"
         style="fill:#ffffff;fill-opacity:1;fill-rule:nonzero;stroke:none"
         id="path324" />
      <path
         d="m 6581.33,12056.6 h -241.06 l 5.51,-27.2 h 241.02 l -5.47,27.2"
         style="fill:#ffffff;fill-opacity:1;fill-rule:nonzero;stroke:none"
         id="path326" />
      <path
         d="m 6630,12029.4 h 93.52 l -5.43,27.2 h -93.48 l 5.39,-27.2"
         style="fill:#ffffff;fill-opacity:1;fill-rule:nonzero;stroke:none"
         id="path328" />
      <path
         d="m 6914.18,12029.4 h 190.7 l -5.31,27.2 h -190.74 l 5.35,-27.2"
         style="fill:#ffffff;fill-opacity:1;fill-rule:nonzero;stroke:none"
         id="path330" />
      <path
         d="m 6759.49,12029.4 h 97.23 l -5.47,27.2 h -97.11 l 5.35,-27.2"
         style="fill:#ffffff;fill-opacity:1;fill-rule:nonzero;stroke:none"
         id="path332" />
      <path
         d="m 6681.6,11956.9 h -321.21 l 5.43,-27.2 h 321.17 l -5.39,27.2"
         style="fill:#ffffff;fill-opacity:1;fill-rule:nonzero;stroke:none"
         id="path334" />
      <path
         d="m 6720.59,11929.7 h 450.58 l -5.35,27.2 h -450.66 l 5.43,-27.2"
         style="fill:#ffffff;fill-opacity:1;fill-rule:nonzero;stroke:none"
         id="path336" />
      <path
         d="m 6378.36,11867.7 5.51,-27.3 h 138.9 l -5.47,27.3 h -138.94"
         style="fill:#ffffff;fill-opacity:1;fill-rule:nonzero;stroke:none"
         id="path338" />
      <path
         d="m 6558.01,11867.7 5.51,-27.3 h 141.28 l -5.42,27.3 h -141.37"
         style="fill:#ffffff;fill-opacity:1;fill-rule:nonzero;stroke:none"
         id="path340" />
      <path
         d="m 7107.19,11840.4 h 81.44 l -5.35,27.3 h -81.4 l 5.31,-27.3"
         style="fill:#ffffff;fill-opacity:1;fill-rule:nonzero;stroke:none"
         id="path342" />
      <path
         d="m 6732.89,11867.7 5.43,-27.3 h 337.73 l -5.42,27.3 h -337.74"
         style="fill:#ffffff;fill-opacity:1;fill-rule:nonzero;stroke:none"
         id="path344" />
      <path
         d="m 7894.92,12589 -5.19,27.4 h 169.41 l 5.12,-27.4 z m -27.22,143.9 h 29.96 l 5.11,-27.3 h -29.92 z m -14.93,281.4 h 111.61 l 5.11,-27.4 h -111.52 z m -81.79,-308.7 -5.2,27.3 h 86.99 l 5.2,-27.3 z m -89.93,473.5 h 87.27 l 5.12,-27.2 h -87.23 z m -16.95,89.3 h 58.95 l 5.15,-27.3 h -58.94 z m -16.95,89.2 h 155.82 l 5.16,-27.3 H 7652.3 Z m 171.29,-205.7 h -30 l -5.12,27.2 h 29.96 z m 46.83,205.7 5.16,-27.3 h -40.04 l -5.16,27.3 z m 114.96,-295.1 h -174.88 l -5.19,27.3 h 174.96 z m 47.39,-48.2 5.15,-27.4 h -43.28 l -5.15,27.4 z m 9.14,75.5 5.12,-27.3 h -44.97 l -5.11,27.3 z m 52.46,-75.5 5.12,-27.4 h -44.96 l -5.12,27.4 z m 227.46,75.5 5.04,-27.3 h -253.2 l -5.12,27.3 z m 73.83,-192.1 h -252.85 l -5.08,27.3 h 252.93 z m 157.77,-1057.3 -5.08,27.3 h 37.43 l 5.03,-27.3 z m -169.49,0 -5.12,27.3 h 155.24 l 5,-27.3 z m -80.35,0 -5.12,27.3 h 64.96 l 5.12,-27.3 z m -82.5,0 -5.16,27.3 h 63.83 l 5.16,-27.3 z m 9.61,-147.5 -5.12,27.3 h 29.69 l 5.15,-27.3 z m -101.1,0 -5.15,27.3 h 86.29 l 5.11,-27.3 z m -21.95,116.5 h 58.24 l 5.12,-27.2 h -58.24 z m -73.24,388 h 86.56 l 5.12,-27.3 h -86.56 z m -16.88,89.2 h 58.48 l 5.16,-27.3 h -58.44 z m 148.13,-89.2 5.12,-27.3 h -29.77 l -5.12,27.3 z m 150.51,-168 -5.08,27.2 h 42.93 l 5.11,-27.2 z m -130.59,0 -5.12,27.2 h 110.74 l 5.12,-27.2 z m 161.21,-72.5 5.08,-27.2 h -147.58 l -5.12,27.2 z m -176.44,837.9 -5.08,27.3 h 196.21 l 5.08,-27.3 z m 271.32,-738.2 h 87.66 l 5,-27.2 h -87.62 z m 127.58,-99.7 5.04,-27.2 h -206.99 l -5.08,27.2 z m -148.94,72.5 h -44.61 l -5.12,27.2 h 44.65 z m -299.26,984.9 h 88.2 l 5.08,-27.4 h -88.16 z m -54.88,-89.3 h 44.92 l 5.11,-27.3 h -44.96 z m -186.22,-27.3 -5.15,27.3 h 174.76 l 5.08,-27.3 z m 270.36,-75.6 5.07,-27.3 h -255.97 l -5.16,27.3 z m -148.17,-459.8 h 154.69 l 5.08,-27.3 h -154.65 z m -19.37,102.8 h 58.55 l 5.16,-27.2 h -58.6 z m -46.37,-880.1 h 970.2 l -380.32,1814.8 h -923.79 l 345,-1812.6 -11.09,-2.2"
         style="fill:#223150;fill-opacity:1;fill-rule:nonzero;stroke:none"
         id="path346" />
      <path
         d="m 7577.34,13241.1 h -87.14 l -5.2,27.3 h 87.11 z m 17,-89.2 h -87.07 l -5.2,27.2 h 87.11 z m 17.03,-89.4 h -87.03 l -5.24,27.3 h 87.03 z m 16.95,-89.1 h -86.91 l -5.2,27.2 h 86.92 z m 17.03,-89.3 h -86.87 l -5.24,27.3 h 86.88 z m 17.03,-89.3 h -86.79 l -5.28,27.3 h 86.88 z m 17.03,-89.2 h -86.79 l -5.2,27.3 h 86.76 z m 17,-89.2 h -86.72 l -5.24,27.3 h 86.72 z m 16.99,-89.3 h -86.6 l -5.24,27.3 h 86.64 z m 16.99,-89.2 h -86.56 l -5.2,27.2 h 86.6 z m 17.07,-89.2 h -86.52 l -5.28,27.2 h 86.57 z m 16.99,-89.4 h -86.48 l -5.2,27.3 h 86.49 z m 17.03,-89.2 h -86.44 l -5.24,27.3 h 86.45 z m 17,-89.2 h -86.33 l -5.24,27.3 h 86.41 z m 17.03,-89.3 h -86.33 l -5.2,27.3 h 86.33 z m 17.03,-89.2 h -86.29 l -5.23,27.3 h 86.28 z m 16.99,-89.2 h -86.17 l -5.27,27.2 h 86.21 z m 16.99,-89.3 h -86.13 l -5.19,27.3 h 86.13 z m 17.03,-89.2 h -86.05 l -5.27,27.2 h 86.09 z m -415.66,1722.9 h 87.23 l 5.15,-27.3 h -87.14 z m 117.97,42.2 H 7421.02 L 7786.76,11585 h 132.97 l -345,1812.6 11.13,2.2"
         style="fill:#223150;fill-opacity:1;fill-rule:nonzero;stroke:none"
         id="path348" />
      <path
         d="m 7585.86,13399.8 -11.13,-2.2 345,-1812.6 0.39,-2.1 11.13,2.1 11.09,2.2 -345,1812.6 -0.11,0.7 h -7.54 l -3.83,-0.7"
         style="fill:#ffffff;fill-opacity:1;fill-rule:nonzero;stroke:none"
         id="path350" />
      <path
         d="M 9100.43,11487.3 H 5486.76 l -455.08,2171.9 H 8645.39 Z M 10253,12597.5 H 9026.88 l -33.99,162.1 -19.61,93.6 -1.4,6.8 -75.04,358.1 -119.96,572.5 h -36.8 v 2838.7 h 5149.52 c -5.4,22.5 -10.5,45.4 -15.2,68.4 -3,6.6 -5.9,13.2 -9.6,19.2 -33,53.9 -192.5,43 -156.9,126.9 9.4,20.4 18.5,39.7 27.3,58.4 h -5210.32 -2.07 v -3111.6 h -122.5 -3570.62 l 497.03,-2372.4 h 2465.47 1413.32 68.4 l -189.85,906.3 h 1592.14 c -157.3,97.4 -301.2,191.3 -423.2,273"
         style="fill:#323660;fill-opacity:1;fill-rule:nonzero;stroke:none"
         id="path352" />
      <path
         d="m 12992.4,12597.5 c -69.6,-89.4 -142.3,-181.5 -215.7,-273 -210.3,-261.8 -427.1,-518.4 -597.8,-689.2 0,0 -4.5,0.2 -12.2,0.9 -12.9,-16.3 -20.9,-25.5 -20.9,-25.5 -261,69.2 -564.5,205.8 -863.7,364.1 l -87.6,-410.6 c 0,0 -16.9,-83.7 -30.6,-158.8 43.3,-9.4 88.7,-25.4 116.1,-53.3 l 42.7,-47.8 h 572.7 846.9 c -19.3,115 13.5,259.9 13.5,259.9 l 162.2,760.3 h 312.7 c 0.7,37.4 5.6,78.6 18.8,127 8.9,32.3 7.3,84 0.1,146 h -257.2"
         style="fill:#323660;fill-opacity:1;fill-rule:nonzero;stroke:none"
         id="path354" />
      <path
         d="m 11991.2,12597.5 h -487.1 l 417.4,-128 c 21.6,40.7 45,83.6 69.7,128"
         style="fill:#323660;fill-opacity:1;fill-rule:nonzero;stroke:none"
         id="path356" />
      <path
         d="m 12761.7,16234.7 c -53.1,0 -96.1,42.9 -96.1,96 0,52.9 43,96 96.1,96 53,0 96,-43.1 96,-96 0,-53.1 -43,-96 -96,-96 z m -250.6,0 c -53.1,0 -95.9,42.9 -95.9,96 0,52.9 42.8,96 95.9,96 53,0 96,-43.1 96,-96 0,-53.1 -43,-96 -96,-96 z m -252.9,0 c -53.1,0 -96,42.9 -96,96 0,52.9 42.9,96 96,96 53,0 96,-43.1 96,-96 0,-53.1 -43,-96 -96,-96 z m 767.9,237.4 H 8896.84 v -282.8 h 4129.26 v 282.8"
         style="fill:#323660;fill-opacity:1;fill-rule:nonzero;stroke:none"
         id="path358" />
      <path
         d="m 13935.3,16472.1 h -810.4 v -282.8 h 977.9 c -68.9,54.6 -124.4,157.8 -167.5,282.8"
         style="fill:#323660;fill-opacity:1;fill-rule:nonzero;stroke:none"
         id="path360" />
      <path
         d="m 14405.8,16191.5 c -2.1,-0.8 -4.1,-1.4 -6.1,-2.2 h 6.2 l -0.1,2.2"
         style="fill:#323660;fill-opacity:1;fill-rule:nonzero;stroke:none"
         id="path362" />
      <path
         d="m 7228.28,13424.6 c -27.38,0 -54.06,22.7 -59.49,50.7 -5.43,28.1 12.42,50.9 39.92,50.9 27.42,0 54.14,-22.8 59.53,-50.9 5.35,-28 -12.46,-50.7 -39.96,-50.7 z m -129.65,0 c -27.46,0 -54.06,22.7 -59.57,50.7 -5.39,28.1 12.39,50.9 39.89,50.9 27.46,0 54.14,-22.8 59.57,-50.9 5.39,-28 -12.43,-50.7 -39.89,-50.7 z m -130.86,0 c -27.46,0 -54.1,22.7 -59.61,50.7 -5.46,28.1 12.31,50.9 39.81,50.9 27.42,0 54.18,-22.8 59.57,-50.9 5.51,-28 -12.34,-50.7 -39.77,-50.7 z m -1765.62,125.6 31.13,-149.7 h 2136.49 l -28.75,149.7 H 5202.15"
         style="fill:#323660;fill-opacity:1;fill-rule:nonzero;stroke:none"
         id="path364" />
      <path
         d="m 8379.8,13424.6 c -27.46,0 -53.94,22.7 -59.1,50.7 -5.19,28.1 12.85,50.9 40.35,50.9 27.43,0 53.91,-22.8 59.11,-50.9 5.15,-28 -12.97,-50.7 -40.36,-50.7 z m -129.68,0 c -27.42,0 -53.91,22.7 -59.1,50.7 -5.24,28.1 12.81,50.9 40.23,50.9 27.5,0 53.95,-22.8 59.14,-50.9 5.16,-28 -12.85,-50.7 -40.27,-50.7 z m -130.86,0 c -27.5,0 -53.95,22.7 -59.22,50.7 -5.2,28.1 12.77,50.9 40.27,50.9 27.42,0 53.91,-22.8 59.18,-50.9 5.2,-28 -12.81,-50.7 -40.23,-50.7 z m -727.07,125.6 28.71,-149.7 h 1100.08 l -38.13,149.7 H 7392.19"
         style="fill:#323660;fill-opacity:1;fill-rule:nonzero;stroke:none"
         id="path366" />
      <path
         d="m 8119.26,13424.6 c 27.42,0 45.43,22.7 40.23,50.7 -5.27,28.1 -31.76,50.9 -59.18,50.9 -27.5,0 -45.47,-22.8 -40.27,-50.9 5.27,-28 31.72,-50.7 59.22,-50.7"
         style="fill:#3bbec5;fill-opacity:1;fill-rule:nonzero;stroke:none"
         id="path368" />
      <path
         d="m 8250.12,13424.6 c 27.42,0 45.43,22.7 40.27,50.7 -5.19,28.1 -31.64,50.9 -59.14,50.9 -27.42,0 -45.47,-22.8 -40.23,-50.9 5.19,-28 31.68,-50.7 59.1,-50.7"
         style="fill:#3bbec5;fill-opacity:1;fill-rule:nonzero;stroke:none"
         id="path370" />
      <path
         d="m 8379.8,13424.6 c 27.39,0 45.51,22.7 40.36,50.7 -5.2,28.1 -31.68,50.9 -59.11,50.9 -27.5,0 -45.54,-22.8 -40.35,-50.9 5.16,-28 31.64,-50.7 59.1,-50.7"
         style="fill:#3bbec5;fill-opacity:1;fill-rule:nonzero;stroke:none"
         id="path372" />
      <path
         d="m 7555.12,13357.6 h -87.23 l 5.24,-27.3 h 87.14 l -5.15,27.3"
         style="fill:#ffffff;fill-opacity:1;fill-rule:nonzero;stroke:none"
         id="path374" />
      <path
         d="m 7485,13268.4 5.2,-27.3 h 87.14 l -5.23,27.3 H 7485"
         style="fill:#ffffff;fill-opacity:1;fill-rule:nonzero;stroke:none"
         id="path376" />
      <path
         d="m 7507.27,13151.9 h 87.07 l -5.16,27.2 h -87.11 l 5.2,-27.2"
         style="fill:#ffffff;fill-opacity:1;fill-rule:nonzero;stroke:none"
         id="path378" />
      <path
         d="m 7524.34,13062.5 h 87.03 l -5.24,27.3 h -87.03 l 5.24,-27.3"
         style="fill:#ffffff;fill-opacity:1;fill-rule:nonzero;stroke:none"
         id="path380" />
      <path
         d="m 7541.41,12973.4 h 86.91 l -5.19,27.2 h -86.92 l 5.2,-27.2"
         style="fill:#ffffff;fill-opacity:1;fill-rule:nonzero;stroke:none"
         id="path382" />
      <path
         d="m 7558.48,12884.1 h 86.87 l -5.23,27.3 h -86.88 l 5.24,-27.3"
         style="fill:#ffffff;fill-opacity:1;fill-rule:nonzero;stroke:none"
         id="path384" />
      <path
         d="m 7575.59,12794.8 h 86.79 l -5.19,27.3 h -86.88 l 5.28,-27.3"
         style="fill:#ffffff;fill-opacity:1;fill-rule:nonzero;stroke:none"
         id="path386" />
      <path
         d="m 7592.62,12705.6 h 86.79 l -5.23,27.3 h -86.76 l 5.2,-27.3"
         style="fill:#ffffff;fill-opacity:1;fill-rule:nonzero;stroke:none"
         id="path388" />
      <path
         d="m 7609.69,12616.4 h 86.72 l -5.24,27.3 h -86.72 l 5.24,-27.3"
         style="fill:#ffffff;fill-opacity:1;fill-rule:nonzero;stroke:none"
         id="path390" />
      <path
         d="m 7626.8,12527.1 h 86.6 l -5.2,27.3 h -86.64 l 5.24,-27.3"
         style="fill:#ffffff;fill-opacity:1;fill-rule:nonzero;stroke:none"
         id="path392" />
      <path
         d="m 7643.83,12437.9 h 86.56 l -5.16,27.2 h -86.6 l 5.2,-27.2"
         style="fill:#ffffff;fill-opacity:1;fill-rule:nonzero;stroke:none"
         id="path394" />
      <path
         d="m 7660.94,12348.7 h 86.52 l -5.23,27.2 h -86.57 l 5.28,-27.2"
         style="fill:#ffffff;fill-opacity:1;fill-rule:nonzero;stroke:none"
         id="path396" />
      <path
         d="m 7677.97,12259.3 h 86.48 l -5.19,27.3 h -86.49 l 5.2,-27.3"
         style="fill:#ffffff;fill-opacity:1;fill-rule:nonzero;stroke:none"
         id="path398" />
      <path
         d="m 7695.04,12170.1 h 86.44 l -5.23,27.3 h -86.45 l 5.24,-27.3"
         style="fill:#ffffff;fill-opacity:1;fill-rule:nonzero;stroke:none"
         id="path400" />
      <path
         d="m 7712.15,12080.9 h 86.33 l -5.16,27.3 h -86.41 l 5.24,-27.3"
         style="fill:#ffffff;fill-opacity:1;fill-rule:nonzero;stroke:none"
         id="path402" />
      <path
         d="m 7729.18,11991.6 h 86.33 l -5.2,27.3 h -86.33 l 5.2,-27.3"
         style="fill:#ffffff;fill-opacity:1;fill-rule:nonzero;stroke:none"
         id="path404" />
      <path
         d="m 7746.25,11902.4 h 86.29 l -5.24,27.3 h -86.28 l 5.23,-27.3"
         style="fill:#ffffff;fill-opacity:1;fill-rule:nonzero;stroke:none"
         id="path406" />
      <path
         d="m 7763.36,11813.2 h 86.17 l -5.23,27.2 h -86.21 l 5.27,-27.2"
         style="fill:#ffffff;fill-opacity:1;fill-rule:nonzero;stroke:none"
         id="path408" />
      <path
         d="m 7780.39,11723.9 h 86.13 l -5.19,27.3 h -86.13 l 5.19,-27.3"
         style="fill:#ffffff;fill-opacity:1;fill-rule:nonzero;stroke:none"
         id="path410" />
      <path
         d="m 7797.5,11634.7 h 86.05 l -5.23,27.2 h -86.09 l 5.27,-27.2"
         style="fill:#ffffff;fill-opacity:1;fill-rule:nonzero;stroke:none"
         id="path412" />
      <path
         d="m 7802.97,13357.6 h -155.82 l 5.15,-27.3 h 155.83 l -5.16,27.3"
         style="fill:#ed3947;fill-opacity:1;fill-rule:nonzero;stroke:none"
         id="path414" />
      <path
         d="m 8151.68,12362.3 h -154.69 l 5.12,-27.3 h 154.65 l -5.08,27.3"
         style="fill:#ed3947;fill-opacity:1;fill-rule:nonzero;stroke:none"
         id="path416" />
      <path
         d="m 8036.17,12465.1 h -58.55 l 5.11,-27.2 h 58.6 l -5.16,27.2"
         style="fill:#ed3947;fill-opacity:1;fill-rule:nonzero;stroke:none"
         id="path418" />
      <path
         d="m 7723.05,13268.4 h -58.95 l 5.16,-27.3 h 58.94 l -5.15,27.3"
         style="fill:#3bbec5;fill-opacity:1;fill-rule:nonzero;stroke:none"
         id="path420" />
      <path
         d="m 7768.32,13179.1 h -87.27 l 5.16,-27.2 h 87.23 l -5.12,27.2"
         style="fill:#3bbec5;fill-opacity:1;fill-rule:nonzero;stroke:none"
         id="path422" />
      <path
         d="m 7788.44,13151.9 h 30 l -5.16,27.2 h -29.96 l 5.12,-27.2"
         style="fill:#00adef;fill-opacity:1;fill-rule:nonzero;stroke:none"
         id="path424" />
      <path
         d="m 8070.86,12286.6 h -58.48 l 5.2,-27.3 h 58.44 l -5.16,27.3"
         style="fill:#3bbec5;fill-opacity:1;fill-rule:nonzero;stroke:none"
         id="path426" />
      <path
         d="m 8115.82,12197.4 h -86.56 l 5.12,-27.3 h 86.56 l -5.12,27.3"
         style="fill:#3bbec5;fill-opacity:1;fill-rule:nonzero;stroke:none"
         id="path428" />
      <path
         d="m 8135.86,12170.1 h 29.77 l -5.12,27.3 h -29.77 l 5.12,-27.3"
         style="fill:#00adef;fill-opacity:1;fill-rule:nonzero;stroke:none"
         id="path430" />
      <path
         d="m 8160.74,11809.4 h -58.24 l 5.12,-27.2 h 58.24 l -5.12,27.2"
         style="fill:#3bbec5;fill-opacity:1;fill-rule:nonzero;stroke:none"
         id="path432" />
      <path
         d="m 8119.3,11720.2 5.15,-27.3 h 86.25 l -5.11,27.3 h -86.29"
         style="fill:#3bbec5;fill-opacity:1;fill-rule:nonzero;stroke:none"
         id="path434" />
      <path
         d="m 8220.43,11720.2 5.12,-27.3 h 29.72 l -5.15,27.3 h -29.69"
         style="fill:#00adef;fill-opacity:1;fill-rule:nonzero;stroke:none"
         id="path436" />
      <path
         d="m 7765.78,12732.9 5.2,-27.3 h 86.99 l -5.2,27.3 h -86.99"
         style="fill:#3bbec5;fill-opacity:1;fill-rule:nonzero;stroke:none"
         id="path438" />
      <path
         d="m 7897.66,12732.9 h -29.96 l 5.15,-27.3 h 29.92 l -5.11,27.3"
         style="fill:#00adef;fill-opacity:1;fill-rule:nonzero;stroke:none"
         id="path440" />
      <path
         d="m 7870.43,13330.3 -5.16,27.3 h -40.04 l 5.16,-27.3 h 40.04"
         style="fill:#80cc28;fill-opacity:1;fill-rule:nonzero;stroke:none"
         id="path442" />
      <path
         d="m 8059.14,12616.4 h -169.41 l 5.19,-27.4 h 169.34 l -5.12,27.4"
         style="fill:#80cc28;fill-opacity:1;fill-rule:nonzero;stroke:none"
         id="path444" />
      <path
         d="m 7805.35,13062.5 h 174.88 l -5.11,27.3 h -174.96 l 5.19,-27.3"
         style="fill:#ffffff;fill-opacity:1;fill-rule:nonzero;stroke:none"
         id="path446" />
      <path
         d="m 8321.72,13062.5 -5.04,27.3 H 8063.4 l 5.12,-27.3 h 253.2"
         style="fill:#ffffff;fill-opacity:1;fill-rule:nonzero;stroke:none"
         id="path448" />
      <path
         d="m 8041.88,13062.5 -5.12,27.3 h -44.96 l 5.11,-27.3 h 44.97"
         style="fill:#ffffff;fill-opacity:1;fill-rule:nonzero;stroke:none"
         id="path450" />
      <path
         d="m 7869.65,12925 5.15,-27.3 h 174.69 l -5.08,27.3 h -174.76"
         style="fill:#ffffff;fill-opacity:1;fill-rule:nonzero;stroke:none"
         id="path452" />
      <path
         d="m 8137.66,12897.7 h 252.85 l -5,27.3 h -252.93 l 5.08,-27.3"
         style="fill:#ffffff;fill-opacity:1;fill-rule:nonzero;stroke:none"
         id="path454" />
      <path
         d="m 8105.94,12925 h -44.92 l 5.07,-27.3 h 44.96 l -5.11,27.3"
         style="fill:#ffffff;fill-opacity:1;fill-rule:nonzero;stroke:none"
         id="path456" />
      <path
         d="m 7964.38,13014.3 h -111.61 l 5.2,-27.4 h 111.52 l -5.11,27.4"
         style="fill:#ffffff;fill-opacity:1;fill-rule:nonzero;stroke:none"
         id="path458" />
      <path
         d="m 8032.77,12986.9 -5.15,27.4 h -43.28 l 5.15,-27.4 h 43.28"
         style="fill:#ffffff;fill-opacity:1;fill-rule:nonzero;stroke:none"
         id="path460" />
      <path
         d="m 8204.1,13014.3 h -88.2 l 5.12,-27.4 h 88.16 l -5.08,27.4"
         style="fill:#ffffff;fill-opacity:1;fill-rule:nonzero;stroke:none"
         id="path462" />
      <path
         d="m 8094.34,12986.9 -5.12,27.4 h -44.96 l 5.12,-27.4 h 44.96"
         style="fill:#ffffff;fill-opacity:1;fill-rule:nonzero;stroke:none"
         id="path464" />
      <path
         d="m 8150.23,12794.8 -5.07,27.3 H 7889.1 l 5.16,-27.3 h 255.97"
         style="fill:#ffffff;fill-opacity:1;fill-rule:nonzero;stroke:none"
         id="path466" />
      <path
         d="m 8160.12,12822.1 5.08,-27.3 h 196.21 l -5.08,27.3 h -196.21"
         style="fill:#ffffff;fill-opacity:1;fill-rule:nonzero;stroke:none"
         id="path468" />
      <path
         d="m 8175.31,12056.6 5.12,-27.2 h 110.74 l -5.12,27.2 h -110.74"
         style="fill:#ffffff;fill-opacity:1;fill-rule:nonzero;stroke:none"
         id="path470" />
      <path
         d="m 8348.87,12056.6 h -42.93 l 5.08,-27.2 h 42.96 l -5.11,27.2"
         style="fill:#ffffff;fill-opacity:1;fill-rule:nonzero;stroke:none"
         id="path472" />
      <path
         d="m 8524.18,12056.6 h -87.66 l 5.04,-27.2 h 87.62 l -5,27.2"
         style="fill:#ffffff;fill-opacity:1;fill-rule:nonzero;stroke:none"
         id="path474" />
      <path
         d="m 8370.55,12029.4 h 44.61 l -5.08,27.2 h -44.65 l 5.12,-27.2"
         style="fill:#ffffff;fill-opacity:1;fill-rule:nonzero;stroke:none"
         id="path476" />
      <path
         d="m 8346.72,11929.7 -5.08,27.2 h -147.62 l 5.12,-27.2 h 147.58"
         style="fill:#ffffff;fill-opacity:1;fill-rule:nonzero;stroke:none"
         id="path478" />
      <path
         d="m 8362.15,11929.7 h 206.99 l -5.04,27.2 h -207.03 l 5.08,-27.2"
         style="fill:#ffffff;fill-opacity:1;fill-rule:nonzero;stroke:none"
         id="path480" />
      <path
         d="m 8210.78,11867.7 5.16,-27.3 h 63.83 l -5.16,27.3 h -63.83"
         style="fill:#ffffff;fill-opacity:1;fill-rule:nonzero;stroke:none"
         id="path482" />
      <path
         d="m 8293.32,11867.7 5.12,-27.3 h 64.96 l -5.12,27.3 h -64.96"
         style="fill:#ffffff;fill-opacity:1;fill-rule:nonzero;stroke:none"
         id="path484" />
      <path
         d="m 8543.2,11867.7 5.08,-27.3 h 37.38 l -5.03,27.3 h -37.43"
         style="fill:#ffffff;fill-opacity:1;fill-rule:nonzero;stroke:none"
         id="path486" />
      <path
         d="m 8373.67,11867.7 5.12,-27.3 h 155.12 l -5,27.3 h -155.24"
         style="fill:#ffffff;fill-opacity:1;fill-rule:nonzero;stroke:none"
         id="path488" />
      <path
         d="M 12842.1,11169 H 7007.3 v -446.2 h 5758 c 109.1,191.5 238.2,399 260.8,446.2 h -184"
         style="fill:#dfb38f;fill-opacity:1;fill-rule:nonzero;stroke:none"
         id="path490" />
      <path
         d="m 18017.1,10722.8 h 403.5 v 446.2 h -651.2 c -15,-148.7 -29.3,-297.4 -43.1,-446.2 h 290.8"
         style="fill:#dfb38f;fill-opacity:1;fill-rule:nonzero;stroke:none"
         id="path492" />
      <path
         d="M 5317.3,11169 H 2892.34 v -446.2 H 7007.3 v 446.2 h -1690"
         style="fill:#c58062;fill-opacity:1;fill-rule:nonzero;stroke:none"
         id="path494" />
      <path
         d="m 18420.6,10722.8 h -403.5 l 136.6,-1383.7 h -519 c -2.1,-128.4 -3.9,-266.9 -7.6,-405.3 h 566.6 l 614.7,-6229 h 403.6 l -791.4,8018"
         style="fill:#27294a;fill-opacity:1;fill-rule:nonzero;stroke:none"
         id="path496" />
      <path
         d="m 14584.8,7895 455.9,-4619.3 416.4,-130.3 -468.8,4749.6 h -403.5"
         style="fill:#27294a;fill-opacity:1;fill-rule:nonzero;stroke:none"
         id="path498" />
      <path
         d="M 6467.23,9339.1 H 3159.3 l 136.56,1383.7 h -403.52 l -791.36,-8018 h 403.51 l 614.81,6229 h 3307.93 l -614.81,-6229 h 403.52 l 791.36,8018 H 6603.79 L 6467.23,9339.1"
         style="fill:#27294a;fill-opacity:1;fill-rule:nonzero;stroke:none"
         id="path500" />
      <path
         d="m 13787.1,17497.7 -0.3,6.2 c -0.7,10.5 -0.2,20.8 -0.5,31.2 -5.7,5.1 -11.4,10.3 -17,15.5 -8.8,-94.5 -0.6,-186.5 27.7,-291.1 5.2,-19.3 8.7,-37.7 11.1,-55.5 -0.1,2.9 -0.5,5.8 -0.5,8.7 -2.2,95.2 -15.6,191 -20.5,285"
         style="fill:#f78e8c;fill-opacity:1;fill-rule:nonzero;stroke:none"
         id="path502" />
      <path
         d="m 13864.8,16716.9 c 3.7,-6 6.6,-12.6 9.6,-19.2 -20.7,99.8 -35.5,202.8 -44.2,299.8 -5,55.4 -14.5,110.3 -19.5,165.4 1.8,-92.1 -32.1,-168.6 -75.5,-260.7 -8.8,-18.7 -17.9,-38 -27.3,-58.4 -35.6,-83.9 123.9,-73 156.9,-126.9"
         style="fill:#f78e8c;fill-opacity:1;fill-rule:nonzero;stroke:none"
         id="path504" />
      <path
         d="m 14542.4,4344.7 c -28.7,-7.7 -57.3,-14.9 -85.6,-21.5 v -662.7 l 410.8,208.5 -325.2,475.7"
         style="fill:#2e274f;fill-opacity:1;fill-rule:nonzero;stroke:none"
         id="path506" />
      <path
         d="m 14016.3,3456.9 v 794.5 c -19.6,-1.9 -38.8,-3.6 -57.6,-5.1 l -51.6,-326.1 -577.1,-634.5 c -12.5,-16.7 -23,-34.3 -32,-52 l 713,223.2 h 5.3"
         style="fill:#2e274f;fill-opacity:1;fill-rule:nonzero;stroke:none"
         id="path508" />
      <path
         d="m 14456.8,5131 v -807.8 c 28.3,6.6 56.9,13.8 85.6,21.5 46.6,12.4 93.5,26.2 140.5,41.5 l -226.1,744.8"
         style="fill:#526ea7;fill-opacity:1;fill-rule:nonzero;stroke:none"
         id="path510" />
      <path
         d="m 12170.3,7895 c 141.4,-375.7 302.8,-744.9 442,-1123.2 193,-524.5 326.9,-878.7 533.8,-1425.9 4.4,-11.8 -1.5,-24.8 -13.2,-29.2 v 0 l 408,-1079.7 c 0,0 170.7,-10.9 417.8,9.3 18.8,1.5 38,3.2 57.6,5.1 V 6581.9 L 13617.8,7895 h -1447.5"
         style="fill:#526ea7;fill-opacity:1;fill-rule:nonzero;stroke:none"
         id="path512" />
      <path
         d="m 10102,3629.6 -87.9,-261.6 -706.13,-374.3 c -105.24,-73.4 -150.55,-201.1 -150.55,-201.1 l 1713.48,276.4 -145.5,500.6 c -235.8,-31.7 -459.1,10.3 -623.4,60"
         style="fill:#2e274f;fill-opacity:1;fill-rule:nonzero;stroke:none"
         id="path514" />
      <path
         d="m 14406,16187.9 22.5,-354.7 c 118.4,48.4 283.4,32.6 406.3,45.1 112.8,11.4 311.6,32.1 455.9,34.7 19.8,109.3 38.1,217.6 54.8,325.5 l -26.9,117.4 c -33.5,-30.7 -71.1,-58.7 -112.8,-80.4 -162,-84.2 -392.4,-68.7 -509.2,70.8 -99.1,-63.7 -199.6,-118.7 -290.8,-154.8 l 0.1,-2.2 0.1,-1.4"
         style="fill:#f78e8c;fill-opacity:1;fill-rule:nonzero;stroke:none"
         id="path516" />
      <path
         d="m 14593.4,17433.9 c -42.9,64 -105.5,106.1 -187.5,91.1 -10.7,-1.9 -20.4,-5.4 -29.4,-10.1 78,11.6 164,-29 216.9,-81"
         style="fill:#f78e8c;fill-opacity:1;fill-rule:nonzero;stroke:none"
         id="path518" />
      <path
         d="m 13874.4,16697.7 c 4.7,-23 9.8,-45.9 15.2,-68.4 13.2,-54.9 28.6,-107.5 45.7,-157.2 43.1,-125 98.6,-228.2 167.5,-282.8 0.6,-0.5 1.4,-0.9 2.1,-1.4 33.4,-26 69.9,-41.2 109.6,-41.2 52.2,0 114.2,15.5 181.3,41.2 1.3,0.5 2.6,0.9 3.9,1.4 2,0.8 4,1.4 6.1,2.2 91.2,36.1 191.7,91.1 290.8,154.8 -28.3,33.9 -50.2,74.8 -62.5,123.6 -16,63.3 -100.2,341 -125.9,485.7 -108.2,-54.7 -202.6,29.8 -251.9,133 -11.8,24.6 -22.4,55.2 -30.1,88.6 -9.2,-0.4 -20.7,10 -36.1,35.1 0,0 -204,142.1 -403.8,322.8 0.3,-10.4 -0.2,-20.7 0.5,-31.2 l 0.3,-6.2 c 4.9,-94 18.3,-189.8 20.5,-285 0,-2.9 0.4,-5.8 0.5,-8.7 0.5,-13.7 1.3,-27.4 2.6,-41.1 5,-55.1 14.5,-110 19.5,-165.4 8.7,-97 23.5,-200 44.2,-299.8"
         style="fill:#f78e8c;fill-opacity:1;fill-rule:nonzero;stroke:none"
         id="path520" />
      <path
         d="m 15381.3,17682.6 c -53.1,115.3 -168,200.4 -212.1,317.9 -52.2,139.2 52.4,267.2 184.9,318.2 -129.8,89 -280.2,152.1 -439.1,180.7 -700.9,126.2 -1465.4,-318.5 -1465.4,-318.5 -140,-145.5 82.7,-413.2 319.7,-630.3 5.6,-5.2 11.3,-10.4 17,-15.5 199.8,-180.7 403.8,-322.8 403.8,-322.8 15.4,-25.1 26.9,-35.5 36.1,-35.1 -23.1,101.8 -17.8,230.7 71.7,303.6 23.9,19.5 50.8,29.9 78.6,34.1 9,4.7 18.7,8.2 29.4,10.1 82,15 144.6,-27.1 187.5,-91.1 16.8,-16.6 30.2,-34.3 38.9,-51.8 56.1,-112.1 41.8,-274.4 -57.7,-376.4 -22.5,-23.2 -44.8,-39.2 -66.4,-50.1 25.7,-144.7 109.9,-422.4 125.9,-485.7 12.3,-48.8 34.2,-89.7 62.5,-123.6 116.8,-139.5 347.2,-155 509.2,-70.8 41.7,21.7 79.3,49.7 112.8,80.4 18.5,16.9 35.9,34.7 51.8,52.7 37.8,274.5 64,549.7 73.3,839.3 4.7,146.2 -0.2,299.7 -62.4,434.7"
         style="fill:#ba7c4b;fill-opacity:1;fill-rule:nonzero;stroke:none"
         id="path522" />
      <path
         d="m 14475,17041.4 c -49.8,19.3 -85.1,60.2 -107.8,106.6 -22.8,46.7 -33.7,99.6 -33.7,147.9 0.1,41.1 7.6,79 25.8,107.8 v -0.1 c 6.8,10.6 20.7,13.6 31.2,6.9 10.6,-6.8 13.6,-20.8 6.8,-31.3 -11.3,-17.3 -18.8,-48.1 -18.6,-83.3 0,-2.2 0.3,-4.6 0.4,-6.8 12.1,9.9 25.8,17.7 39.9,23.8 26.3,11.2 54.2,17.3 77.5,19.9 12.4,1.4 23.6,-7.6 25,-20 1.4,-12.4 -7.6,-23.6 -20,-24.9 -19.5,-2.2 -44,-7.6 -64.7,-16.5 -20.9,-8.9 -37.2,-21.3 -44,-34.3 -1.7,-3 -3.9,-5.4 -6.5,-7.3 4.9,-21.4 12,-42.6 21.5,-61.9 19.4,-39.6 47.6,-70.6 83.4,-84.3 11.7,-4.5 17.5,-17.6 13,-29.2 -4.6,-11.7 -17.6,-17.5 -29.2,-13 z m 157.3,340.7 c -8.7,17.5 -22.1,35.2 -38.9,51.8 -52.9,52 -138.9,92.6 -216.9,81 -27.8,-4.2 -54.7,-14.6 -78.6,-34.1 -89.5,-72.9 -94.8,-201.8 -71.7,-303.6 7.7,-33.4 18.3,-64 30.1,-88.6 49.3,-103.2 143.7,-187.7 251.9,-133 21.6,10.9 43.9,26.9 66.4,50.1 99.5,102 113.8,264.3 57.7,376.4"
         style="fill:#f78e8c;fill-opacity:1;fill-rule:nonzero;stroke:none"
         id="path524" />
      <path
         d="m 14491.2,17083.6 c -35.8,13.7 -64,44.7 -83.4,84.3 -9.5,19.3 -16.6,40.5 -21.5,61.9 -6.8,-5 -16.3,-6.2 -24.2,-1.8 -11,5.9 -15,19.7 -9.1,30.6 6.7,12.2 15.8,22.1 26.1,30.5 -0.1,2.2 -0.4,4.6 -0.4,6.8 -0.2,35.2 7.3,66 18.6,83.3 6.8,10.5 3.8,24.5 -6.8,31.3 -10.5,6.7 -24.4,3.7 -31.2,-6.9 v 0.1 c -18.2,-28.8 -25.7,-66.7 -25.8,-107.8 0,-48.3 10.9,-101.2 33.7,-147.9 22.7,-46.4 58,-87.3 107.8,-106.6 11.6,-4.5 24.6,1.3 29.2,13 4.5,11.6 -1.3,24.7 -13,29.2"
         style="fill:#592630;fill-opacity:1;fill-rule:nonzero;stroke:none"
         id="path526" />
      <path
         d="m 14353,17258.6 c -5.9,-10.9 -1.9,-24.7 9.1,-30.6 7.9,-4.4 17.4,-3.2 24.2,1.8 2.6,1.9 4.8,4.3 6.5,7.3 6.8,13 23.1,25.4 44,34.3 20.7,8.9 45.2,14.3 64.7,16.5 12.4,1.3 21.4,12.5 20,24.9 -1.4,12.4 -12.6,21.4 -25,20 -23.3,-2.6 -51.2,-8.7 -77.5,-19.9 -14.1,-6.1 -27.8,-13.9 -39.9,-23.8 -10.3,-8.4 -19.4,-18.3 -26.1,-30.5"
         style="fill:#592630;fill-opacity:1;fill-rule:nonzero;stroke:none"
         id="path528" />
      <path
         d="m 13286.4,10366.6 c -91.9,39.4 -650.2,-105.4 -678.5,12.5 l -1160,-208.3 c 0,-0.2 0.2,-0.4 0.2,-0.6 1.9,-12.3 -6.6,-23.9 -19,-25.7 -350.3,-52.6 -928.8,-143.4 -1273.8,-214.1 -181.86,-37.3 -357.49,-123.6 -491.67,-256 -149.45,-166.9 -187.5,-369.8 -189.72,-524.8 0.27,-27.3 0.78,-54.6 1.95,-82.5 6.05,-95 22.66,-157.7 22.66,-157.7 l 335.7,-5173.6 c 0,0 104.76,-56.9 267.78,-106.2 164.3,-49.7 387.6,-91.7 623.4,-60 48.1,6.5 96.8,16.1 145.5,29.3 l 112.5,4442.4 c 0.4,24.2 2,47.1 4.4,68.9 -15.5,39 -24.2,81.4 -24.2,125.9 v 338 c 0,188.5 152.7,341.2 341.1,341.2 h 2340.8 c 232.3,312.3 295.6,867.5 345.5,1275.5 -220.5,88.7 -484.4,81.3 -704.6,175.8"
         style="fill:#5b7bb9;fill-opacity:1;fill-rule:nonzero;stroke:none"
         id="path530" />
      <path
         d="m 12145.8,11610.7 c 0,0 8,9.2 20.9,25.5 -83.7,7.1 -573.8,71.3 -366.9,582.6 26.3,64.8 68.8,151.3 121.7,250.7 l -417.4,128 -528.6,162.1 -664.6,203.7 -168.1,51.5 -115.6,35.5 2.8,-3 -48.32,-243.7 -25.9,-1.7 c 17.66,-12.5 38.09,-26.9 60.32,-42.3 63,-44.1 143.3,-99.4 236.9,-162.1 122,-81.7 265.9,-175.6 423.2,-273 152.6,-94.6 317.5,-192.2 485.9,-284.9 39.9,-21.9 79.9,-43.5 120,-64.8 299.2,-158.3 602.7,-294.9 863.7,-364.1"
         style="fill:#f78e8c;fill-opacity:1;fill-rule:nonzero;stroke:none"
         id="path532" />
      <path
         d="m 11991.2,12597.5 c -24.7,-44.4 -48.1,-87.3 -69.7,-128 -52.9,-99.4 -95.4,-185.9 -121.7,-250.7 -206.9,-511.3 283.2,-575.5 366.9,-582.6 7.7,-0.7 12.2,-0.9 12.2,-0.9 170.7,170.8 387.5,427.4 597.8,689.2 73.4,91.5 146.1,183.6 215.7,273 45.8,58.7 90,116.1 132.5,171.5 9.6,12.6 19.3,25.1 28.7,37.5 -404.1,182.4 -603.4,418.9 -697.6,576.5 -119,-193.2 -254.1,-416.9 -373,-623.4 -32.1,-55.7 -62.9,-110 -91.8,-162.1"
         style="fill:#f78e8c;fill-opacity:1;fill-rule:nonzero;stroke:none"
         id="path534" />
      <path
         d="m 16598.2,15094.4 c 0,0 -0.1,0 -0.2,0 -32.3,68.4 -85.7,98.7 -153.5,132.5 l -485.5,314.3 c -4.7,-49.5 -9.6,-98.7 -14.9,-147.3 -23.1,-214.1 -13,-423.3 0.3,-633.7 162.9,-2.1 325.8,-7.6 488.6,-15.2 -7.3,64.1 -19.3,126.4 -38.9,184.1 -33.9,99.6 -88,186 -170,249.3 v 0 c -9.9,7.7 -11.7,21.9 -4.1,31.8 7.6,9.8 21.8,11.6 31.8,4 90.3,-69.7 149.1,-164.7 185.1,-270.5 21.6,-63.7 34.4,-131.7 41.7,-200.9 47.3,-2.3 94.5,-4.8 141.8,-7.5 36.8,-2.1 73.7,-4.1 110.7,-6.4 -52.6,312.3 -132.9,365.5 -132.9,365.5"
         style="fill:#593f35;fill-opacity:1;fill-rule:nonzero;stroke:none"
         id="path536" />
      <path
         d="m 14588,15721 c -50.2,0.1 -99.7,2.6 -146.7,8.8 2.2,-8.1 -0.1,-17.1 -6.9,-23 -240.2,-207.3 -461.2,-455.7 -740,-613 -39.8,-22.5 -80.7,-43.1 -123.1,-61.5 -11.4,-5 -24.7,0.4 -29.7,11.8 -5,11.5 0.3,24.8 11.8,29.7 14.1,6.1 27.9,12.8 41.7,19.4 304.4,145.7 541.4,414.7 805.2,643.8 -28.2,5.5 -55.5,12.1 -80.7,21.5 v 0 c -0.8,0.3 -1.1,1.2 -1.8,1.7 -50.5,-44 -107.2,-101.7 -162.8,-157.8 -13.2,-13.3 -26.4,-26.5 -39.4,-39.4 -39.8,-39.4 -78.1,-75.9 -112.1,-103.4 -8.9,-7.1 -17.4,-13.7 -25.6,-19.5 -14.6,-10.3 -29.4,-21 -44.6,-32 -114.3,-83.2 -250.4,-188.7 -478.6,-345.4 -7.4,-5.1 -15,-10.3 -22.6,-15.5 -3,-2 -6.2,-4.2 -9.3,-6.3 -63.6,-29.5 -125.7,-68.4 -184,-112.9 -13.3,-10.1 -26.1,-20.8 -38.9,-31.4 -25.9,-21.4 -51.1,-43.4 -75,-66.2 -35.7,-34 -68.7,-68.8 -98.8,-103.3 -53.7,-61.4 -97.9,-121.6 -128.3,-172.3 -83.2,-138.9 -357.7,-632.1 -519.8,-1000.7 0,0 17,-69 78,-171.1 94.2,-157.6 293.5,-394.1 697.6,-576.5 21.5,-9.7 43.7,-19.2 66.3,-28.5 1.2,-6.2 2.5,-12.4 3.7,-18.4 11.2,-58.5 20.3,-113.3 26,-162.1 7.2,-62 8.8,-113.7 -0.1,-146 -13.2,-48.4 -18.1,-89.6 -18.8,-127 -2.5,-136 52.5,-218 -17.2,-380.1 -89.9,-209.2 -77.2,-428.3 -137.2,-640.1 -12.9,-45.5 -29,-90.7 -50.2,-135.3 -22.6,-47.2 -151.7,-254.7 -260.8,-446.2 -89,-156.2 -164.7,-301.8 -158.2,-341.2 0.1,-0.9 0.6,-1.6 0.8,-2.5 28.3,-117.9 586.6,26.9 678.5,-12.5 220.2,-94.5 484.1,-87.1 704.6,-175.8 4.3,35.6 8.6,70.6 12.9,103.7 65.1,507.3 18.5,1082.2 -69,1582.7 -64.9,370.7 -137,708.8 -253.2,1062.7 -9.5,28.7 -18.4,57.4 -27.1,86.2 -102.1,337.7 -150.3,680.3 -35.1,1020.5 7.8,23.1 16.4,45.2 25.5,66.6 2.9,7 6.1,13.6 9.2,20.4 6.4,14.1 12.9,28.1 19.9,41.5 3.8,7.5 7.9,14.7 11.9,22 6.7,12 13.6,23.9 20.8,35.4 4.4,7 8.9,14.1 13.5,20.9 7.4,11.1 15.1,21.9 23,32.4 4.7,6.3 9.3,12.6 14.1,18.7 8.9,11.2 18.2,21.8 27.6,32.3 4.2,4.7 8.2,9.6 12.4,14.1 13.7,14.5 27.8,28.4 42.4,41.6 3.8,3.5 7.9,6.6 11.8,10 11.1,9.7 22.3,19.2 33.9,28.2 6.3,4.9 12.9,9.5 19.4,14.2 9.6,7 19.2,13.9 29.1,20.5 7.3,4.8 14.7,9.4 22.2,14 9.5,6 19.2,11.8 29.1,17.4 7.9,4.5 15.6,8.9 23.7,13.2 10,5.3 20.1,10.4 30.4,15.4 8.1,3.9 16.1,8 24.3,11.8 7.9,3.6 16,6.9 24.1,10.4 -7.8,54.2 -16.8,108.2 -27.6,162 -2.4,12.2 5.5,24.1 17.8,26.6 2.1,0.4 4.1,0.1 6.1,0 9.8,-0.8 18.4,-7.6 20.5,-17.8 4.8,-24.1 8.3,-48.4 12.5,-72.6 4.7,-26.9 10,-53.6 13.9,-80.4 2.3,0.8 4.5,1.6 6.9,2.4 12.6,4.9 25.3,9.7 38.3,14.1 9.5,3.3 19.3,6.3 29,9.4 10.5,3.4 21,6.8 31.6,10 10.6,3.1 21.3,6 32,9 6.2,1.7 12.4,3.6 18.7,5.3 0.1,-0.1 0.2,-0.1 0.3,-0.2 54.2,14.4 110.3,26.9 168.3,37.8 186.9,35.1 376.8,59 566.9,75.9 41.8,3.8 83.6,8 125.5,10.9 0,3.4 0,6.7 0,10.1 1.8,340.2 51.9,684.2 116.4,1023.1 -128.8,-15.9 -258.3,-30 -390.4,-38 -86.6,-5.2 -187.6,-14.1 -286.5,-14.2"
         style="fill:#593f35;fill-opacity:1;fill-rule:nonzero;stroke:none"
         id="path538" />
      <path
         d="m 14428.5,15833.2 c -12.6,-5.2 -25,-10.3 -36.4,-17 -16.7,-9.8 -35.1,-23.5 -54.6,-39.5 71.8,-24.8 159.6,-33.1 250.5,-33 97.6,-0.1 198.1,8.8 285.1,14.1 133.8,8.1 265.1,22.5 396.1,38.7 7.4,39.1 14.5,77.8 21.5,116.5 -144.3,-2.6 -343.1,-23.3 -455.9,-34.7 -122.9,-12.5 -287.9,3.3 -406.3,-45.1"
         style="fill:#593f35;fill-opacity:1;fill-rule:nonzero;stroke:none"
         id="path540" />
      <path
         d="m 13595.1,15093.2 c -13.8,-6.6 -27.6,-13.3 -41.7,-19.4 -11.5,-4.9 -16.8,-18.2 -11.8,-29.7 5,-11.4 18.3,-16.8 29.7,-11.8 42.4,18.4 83.3,39 123.1,61.5 278.8,157.3 499.8,405.7 740,613 6.8,5.9 9.1,14.9 6.9,23 -14,1.9 -27.5,4.5 -41,7.2 -263.8,-229.1 -500.8,-498.1 -805.2,-643.8"
         style="fill:#1d1e32;fill-opacity:1;fill-rule:nonzero;stroke:none"
         id="path542" />
      <path
         d="m 14060.2,14709.6 c 10.8,-53.8 19.8,-107.8 27.6,-162 3.4,1.5 6.8,2.9 10.2,4.3 7.5,3.2 14.9,6.5 22.5,9.5 3.5,1.4 7,2.6 10.5,4 -3.9,26.8 -9.2,53.5 -13.9,80.4 -4.2,24.2 -7.7,48.5 -12.5,72.6 -2.1,10.2 -10.7,17 -20.5,17.8 -2,0.1 -4,0.4 -6.1,0 -12.3,-2.5 -20.2,-14.4 -17.8,-26.6"
         style="fill:#1d1e32;fill-opacity:1;fill-rule:nonzero;stroke:none"
         id="path544" />
      <path
         d="m 14873.1,15757.8 c -87,-5.3 -187.5,-14.2 -285.1,-14.1 -90.9,-0.1 -178.7,8.2 -250.5,33 -3.2,1.2 -6.8,1.8 -9.9,3 -5.9,2.2 -12.4,-0.8 -14.6,-6.6 -1.9,-5 0.6,-10.1 4.8,-12.9 0.7,-0.5 1,-1.4 1.8,-1.7 v 0 c 25.2,-9.4 52.5,-16 80.7,-21.5 13.5,-2.7 27,-5.3 41,-7.2 47,-6.2 96.5,-8.7 146.7,-8.8 98.9,0.1 199.9,9 286.5,14.2 132.1,8 261.6,22.1 390.4,38 0.3,1.7 0.6,3.4 0.9,5.1 1.2,6.1 2.3,12.1 3.4,18.2 -131,-16.2 -262.3,-30.6 -396.1,-38.7"
         style="fill:#1d1e32;fill-opacity:1;fill-rule:nonzero;stroke:none"
         id="path546" />
      <path
         d="m 16251.8,15214.2 c -10,7.6 -24.2,5.8 -31.8,-4 -7.6,-9.9 -5.8,-24.1 4.1,-31.8 v 0 c 82,-63.3 136.1,-149.7 170,-249.3 19.6,-57.7 31.6,-120 38.9,-184.1 15.2,-0.7 30.4,-1.4 45.6,-2.2 -7.3,69.2 -20.1,137.2 -41.7,200.9 -36,105.8 -94.8,200.8 -185.1,270.5"
         style="fill:#1d1e32;fill-opacity:1;fill-rule:nonzero;stroke:none"
         id="path548" />
      <path
         d="m 9351.84,13484 -77.27,89.7 c -1.29,-39.6 8.24,-92.1 51.33,-144.4 0,0 -123.79,-21.4 8.2,-180.2 0,0 -75.9,-17.8 17.89,-155.8 l 194.1,-186.7 c 0,0 87.7,-117.8 205.24,-117.3 l 204.45,12.6 25.9,1.7 48.32,243.7 -2.8,3 -369.5,394.1 -91.41,48.7 0.19,-0.2 c -67.38,-110 -214.64,-8.9 -214.64,-8.9"
         style="fill:#f78e8c;fill-opacity:1;fill-rule:nonzero;stroke:none"
         id="path550" />
      <path
         d="m 9274.57,13573.7 77.27,-89.7 c 0,0 147.26,-101.1 214.64,8.9 l -0.19,0.2 -339.61,326.7 -22.62,21.8 -63.63,61.3 -14.02,13.4 -69.38,66.8 c 0,0 -42.03,-5.6 -46.13,-66.8 -0.78,-11.1 -0.67,-23.3 1.6,-38.4 l 11.21,-13.1 100.82,-117 15.9,-18.5 63.63,-73.8 22.62,-26.2 47.89,-55.6"
         style="fill:#f78e8c;fill-opacity:1;fill-rule:nonzero;stroke:none"
         id="path552" />
      <path
         d="m 15169.2,18000.5 c 44.1,-117.5 159,-202.6 212.1,-317.9 62.2,-135 67.1,-288.5 62.4,-434.7 -9.3,-289.6 -35.5,-564.8 -73.3,-839.3 -7.7,-56.7 -16,-113.4 -24.9,-170.1 -16.7,-107.9 -35,-216.2 -54.8,-325.5 -7,-38.7 -14.1,-77.4 -21.5,-116.5 -1.1,-6.1 -2.2,-12.1 -3.4,-18.2 -0.3,-1.7 -0.6,-3.4 -0.9,-5.1 -64.5,-338.9 -114.6,-682.9 -116.4,-1023.1 0,-3.4 0,-6.7 0,-10.1 74.5,5.4 149,9.6 223.5,12.8 190.8,8.1 381.6,9.9 572.4,7.4 -13.3,210.4 -23.4,419.6 -0.3,633.7 5.3,48.6 10.2,97.8 14.9,147.3 30.5,319.6 52.3,654.3 93.7,965.7 57.7,434.1 169.2,1008.4 -56.6,1403 -86.7,151.2 -269.7,360.3 -435.9,418.2 -64.9,22.7 -139.1,16.3 -206.1,-9.4 -132.5,-51 -237.1,-179 -184.9,-318.2"
         style="fill:#c48250;fill-opacity:1;fill-rule:nonzero;stroke:none"
         id="path554" />
      <path
         d="m 9473.44,9169.5 c 0.15,162.8 23.28,310.6 134.1,444 17.73,21.3 36.48,41.5 56.09,60.9 134.18,132.4 309.81,218.7 491.67,256 345,70.7 923.5,161.5 1273.8,214.1 12.4,1.8 20.9,13.4 19,25.7 0,0.2 -0.2,0.4 -0.2,0.6 -2.2,12 -13.4,20.2 -25.5,18.4 -350.9,-52.7 -929.2,-143.5 -1276.1,-214.5 -217.32,-44.6 -426.73,-156.1 -573.49,-332.3 -120.23,-144.2 -144.76,-306.5 -144.61,-472.9 0.04,-68.9 4.1,-138.9 7.46,-209.6 12.19,-258.2 30.28,-514.4 45.59,-769 36.17,-602.2 114.14,-1541.3 182.23,-2622.9 0.78,-12.5 11.52,-21.9 23.98,-21.1 12.46,0.8 21.92,11.5 21.13,23.9 -68.08,1082.2 -146.13,2021.6 -182.26,2622.8 -15.28,254.9 -33.36,510.9 -45.51,768.5 -1.68,35.4 -3.55,70.4 -4.96,105 -1.17,27.9 -1.68,55.2 -1.95,82.5 -0.08,6.5 -0.47,13.4 -0.47,19.9"
         style="fill:#1d1e32;fill-opacity:1;fill-rule:nonzero;stroke:none"
         id="path556" />
      <path
         d="m 13146.1,5345.9 c -206.9,547.2 -340.8,901.4 -533.8,1425.9 -139.2,378.3 -300.6,747.5 -442,1123.2 h -48.4 c 143.3,-382.7 307.5,-756.9 448,-1138.8 193,-524.7 327,-879.1 533.9,-1426.4 4.4,-11.6 17.4,-17.5 29.1,-13.1 v 0 c 11.7,4.4 17.6,17.4 13.2,29.2"
         style="fill:#1d1e32;fill-opacity:1;fill-rule:nonzero;stroke:none"
         id="path558" />
      <path
         d="m 17895.6,14375.6 c -211.5,286.9 -625,317.1 -950.7,339.5 -71.3,4.9 -142.6,9.5 -213.8,13.8 -37,2.3 -73.9,4.3 -110.7,6.4 -47.3,2.7 -94.5,5.2 -141.8,7.5 -15.2,0.8 -30.4,1.5 -45.6,2.2 -162.8,7.6 -325.7,13.1 -488.6,15.2 -190.8,2.5 -381.6,0.7 -572.4,-7.4 -74.5,-3.2 -149,-7.4 -223.5,-12.8 -41.9,-2.9 -83.7,-7.1 -125.5,-10.9 -190.1,-16.9 -380,-40.8 -566.9,-75.9 -58,-10.9 -114.1,-23.4 -168.3,-37.8 287.8,-190.4 380.2,-587.9 429,-907.6 94.7,-621.5 65.6,-1255.6 73.7,-1882 0,0 -15,-1890.2 -355.1,-2910.5 h -789.9 -2340.8 c -188.4,0 -341.1,-152.7 -341.1,-341.2 v -338 c 0,-44.5 8.7,-86.9 24.2,-125.9 50.2,-126 173,-215.2 316.9,-215.2 h 817.2 48.4 1447.5 398.5 220.3 220.2 128 403.5 2238.4 c 188.4,0 341.1,152.7 341.1,341.1 38,184.6 52.3,440.4 59.3,697.7 3.7,138.4 5.5,276.9 7.6,405.3 2.1,131.4 4.7,252.1 10.5,350 20.7,345 49.2,689.5 81.1,1033.7 13.8,148.8 28.1,297.5 43.1,446.2 64.2,637.7 136.5,1274.7 195,1912.6 37.7,410.2 201.1,928.1 -68.8,1294"
         style="fill:#58356a;fill-opacity:1;fill-rule:nonzero;stroke:none"
         id="path560" />
      <path
         d="m 14268.8,14610.3 c -10.7,-3 -21.4,-5.9 -32,-9 -10.6,-3.2 -21.1,-6.6 -31.6,-10 -9.7,-3.1 -19.5,-6.1 -29,-9.4 -13,-4.4 -25.7,-9.2 -38.3,-14.1 -2.4,-0.8 -4.6,-1.6 -6.9,-2.4 -3.5,-1.4 -7,-2.6 -10.5,-4 -7.6,-3 -15,-6.3 -22.5,-9.5 -3.4,-1.4 -6.8,-2.8 -10.2,-4.3 -8.1,-3.5 -16.2,-6.8 -24.1,-10.4 -8.2,-3.8 -16.2,-7.9 -24.3,-11.8 -10.3,-5 -20.4,-10.1 -30.4,-15.4 -8.1,-4.3 -15.8,-8.7 -23.7,-13.2 -9.9,-5.6 -19.6,-11.4 -29.1,-17.4 -7.5,-4.6 -14.9,-9.2 -22.2,-14 -9.9,-6.6 -19.5,-13.5 -29.1,-20.5 -6.5,-4.7 -13.1,-9.3 -19.4,-14.2 -11.6,-9 -22.8,-18.5 -33.9,-28.2 -3.9,-3.4 -8,-6.5 -11.8,-10 -14.6,-13.2 -28.7,-27.1 -42.4,-41.6 -4.2,-4.5 -8.2,-9.4 -12.4,-14.1 -9.4,-10.5 -18.7,-21.1 -27.6,-32.3 -4.8,-6.1 -9.4,-12.4 -14.1,-18.7 -7.9,-10.5 -15.6,-21.3 -23,-32.4 -4.6,-6.8 -9.1,-13.9 -13.5,-20.9 -7.2,-11.5 -14.1,-23.4 -20.8,-35.4 -4,-7.3 -8.1,-14.5 -11.9,-22 -7,-13.4 -13.5,-27.4 -19.9,-41.5 -3.1,-6.8 -6.3,-13.4 -9.2,-20.4 -9.1,-21.4 -17.7,-43.5 -25.5,-66.6 -115.2,-340.2 -67,-682.8 35.1,-1020.5 8.7,-28.8 17.6,-57.5 27.1,-86.2 116.2,-353.9 188.3,-692 253.2,-1062.7 87.5,-500.5 134.1,-1075.4 69,-1582.7 -4.3,-33.1 -8.6,-68.1 -12.9,-103.7 -49.9,-408 -113.2,-963.2 -345.5,-1275.5 h 789.9 c 340.1,1020.3 355.1,2910.5 355.1,2910.5 -8.1,626.4 21,1260.5 -73.7,1882 -48.8,319.7 -141.2,717.2 -429,907.6 -0.1,0.1 -0.2,0.1 -0.3,0.2 -6.3,-1.7 -12.5,-3.6 -18.7,-5.3"
         style="fill:#694182;fill-opacity:1;fill-rule:nonzero;stroke:none"
         id="path562" />
      <path
         d="m 14016.3,4251.4 v -794.5 h 220.3 V 7895 h -220.3 V 6581.9 4251.4"
         style="fill:#6880b6;fill-opacity:1;fill-rule:nonzero;stroke:none"
         id="path564" />
      <path
         d="m 15457.1,3145.4 -416.4,130.3 -578.6,181.2 h -5.3 l 1913.4,-597.3 -913.1,285.8"
         style="fill:#7695c0;fill-opacity:1;fill-rule:nonzero;stroke:none"
         id="path566" />
      <path
         d="m 16370.2,2859.6 -2169.3,364.1 255.9,233.2 V 7895 h -220.2 V 3456.9 L 13355,2704.8 h 862.3 38.5 841.2 403.6 1096.4 c -17,129.9 -226.8,154.8 -226.8,154.8"
         style="fill:#7695c0;fill-opacity:1;fill-rule:nonzero;stroke:none"
         id="path568" />
      <path
         d="M 14217.3,3456.9 H 14011 l -713,-223.2 -1195.1,-374.1 c 0,0 -209.7,-24.9 -226.8,-154.8 H 13355 l 881.6,752.1 h -19.3"
         style="fill:#6880b6;fill-opacity:1;fill-rule:nonzero;stroke:none"
         id="path570" />
      <path
         d="m 14456.8,3456.9 -255.9,-233.2 2169.3,-364.1 z"
         style="fill:#93b0e1;fill-opacity:1;fill-rule:nonzero;stroke:none"
         id="path572" />
    </g>
  </g>
</svg>
